<svg xmlns="http://www.w3.org/2000/svg" xmlns:xlink="http://www.w3.org/1999/xlink" viewBox="0 0 85.96 50.4"><defs><style>.cls-1{fill:#294294;}.cls-2{fill:url(#linear-gradient);}.cls-3{fill:#fff;opacity:0.2;}.cls-4{fill:#be1622;}.cls-5{fill:url(#linear-gradient-2);}</style><linearGradient id="linear-gradient" x1="33.19" y1="68.61" x2="40.09" y2="68.61" gradientTransform="translate(-25.86 -29.15) rotate(-13.34)" gradientUnits="userSpaceOnUse"><stop offset="0" stop-color="#fff"/><stop offset="1" stop-color="#2c4798"/></linearGradient><linearGradient id="linear-gradient-2" x1="160.68" y1="95.22" x2="169.99" y2="95.22" gradientTransform="matrix(-0.97, -0.23, -0.23, 0.97, 218.54, -29.15)" gradientUnits="userSpaceOnUse"><stop offset="0" stop-color="#fff"/><stop offset="1" stop-color="#be1622"/></linearGradient></defs><title>logo2Asset 3</title><g id="Layer_2" data-name="Layer 2"><g id="Layer_2-2" data-name="Layer 2"><g id="Symbol_1"><path class="cls-1" d="M29.16,37.78a4.85,4.85,0,0,1,0-2.08c-.37.83.16-.92.17-1a1.92,1.92,0,0,0-.25.47,2.13,2.13,0,0,1,.36-.88s-.29.23-.27.26.29-.56.31-.55-.32.11-.31.19a7.7,7.7,0,0,0,.18-1.67s-.14.65-.14.62A3.77,3.77,0,0,0,28.81,31a4.61,4.61,0,0,1,0,2.87c.3-1.44-.45-3.79-1.18-5.12,0,.31.34,2.08.4,2.46a12,12,0,0,1-1-2.61v.2c0-.34-.33-2.35-.35-2.66.05.48-.21,2.78-.25,3.16-.06-2.07-.3-4.72-1.54-6.48a2,2,0,0,1,0,.69,5,5,0,0,0-.8-2.18,13.09,13.09,0,0,1,.38,3.07,5.11,5.11,0,0,0-.57-1.63s0,.56,0,.53c0-.26-.91-3.1-.83-1.24a6.48,6.48,0,0,0-.78-2.88c-.06-.22-.23-1.74-.24-2A8.22,8.22,0,0,0,21.87,20a1.31,1.31,0,0,1-.14-.59.93.93,0,0,0-.07.35c0-.37-.23-2.19-.21-2.7,0-.1-.2.78-.2.71.16-.94,0-2.85.45-3.79-.2,0-.51.95-.5,1.07s.07-.72.11-.7c-.42.13-.79,3-.72,1.14.43-1.75-.06-3.7,1.06-5.12a7.27,7.27,0,0,0-1.25,1.76s.32-.77.28-.71-.54,1-.5,1.12a1.71,1.71,0,0,1,.07-.57,3.63,3.63,0,0,0-.31.8c-.07.38-.05.13-.12.05a9.88,9.88,0,0,0-.34,2.12s0-.12,0-.39c-.09-.79-.21,1.65-.18,1.64-.1-.17-.08.2-.14.26A14.3,14.3,0,0,1,19,12.92a7.25,7.25,0,0,0-.34,1.19V13.7a8.08,8.08,0,0,0-.2,4.72,3.33,3.33,0,0,1-.31-.78A7.47,7.47,0,0,0,18.74,21a5.41,5.41,0,0,1-.55-1.27A10,10,0,0,0,18.91,22c-.25.05-.76-1.48-.78-1.71a8.68,8.68,0,0,0,1.13,3.19c-.11,0-.69-1-.72-1.07,0,.17.44,1.2.51,1.39a10.15,10.15,0,0,1-1.19-2.23,5.7,5.7,0,0,0,.33,1.29L18,22.48s.43,1.33.47,1.47l-.09-.14a14.51,14.51,0,0,0,1.23,2.75,4.52,4.52,0,0,1-.53-.81,10.85,10.85,0,0,0,1,1.95s0,.05-.13-.08-.14-.15-.14-.15a5.06,5.06,0,0,0,.84,1.28c-.06.09-.4-.39-.36-.38-.14.18,1,1.35,1,1.36l-.13,0c-.08-.12,1,1.17.88,1a3.15,3.15,0,0,1-.79-.37,2.39,2.39,0,0,0,.18.24,3,3,0,0,1-.53-.46,7.43,7.43,0,0,0,1,1.36l-.45-.4c0,.09.66.75.66.82l-.26-.22a4.8,4.8,0,0,0,1.86,1.38c.19.14-.53-.11-.53-.11a1.35,1.35,0,0,1,.28.18c.05.17-.83-.16-.83-.23l.19.24c-.06-.07-.72-.5-.79-.56s.72.57.34.41l.75.59-.37-.23a7.06,7.06,0,0,0,2,1.32,13.28,13.28,0,0,1,2.24.94c.62.44-.06-.07-.47,0a2.9,2.9,0,0,0-.53.17C26.71,35.62,28.93,37.09,29.16,37.78Z"/><path class="cls-2" d="M30.52,41.57l-.38-.3a21.61,21.61,0,0,0-3-7.33c-3.3-5.33-7.94-10.75-7.31-17-.39,5.82,3.84,11.47,7,16.12A30.36,30.36,0,0,1,30.52,41.57Z"/><path class="cls-3" d="M28.36,34.81s0-.75.06-1.28a2.41,2.41,0,0,0,0-.66,3.13,3.13,0,0,0,0-1c-.11-.55-.51-2.13-.51-2.13a8.49,8.49,0,0,1,.52,1.43,5.29,5.29,0,0,1,.25,1.56,10.37,10.37,0,0,1-.21,1.81A.58.58,0,0,0,28.36,34.81Z"/><path class="cls-3" d="M28.75,36s.17-.69.24-1a2,2,0,0,1,.3-.79c.1-.14-.43.19-.54.64s-.24.9-.24.9,0,0,.18-.29a2.21,2.21,0,0,0,.16-.4,2.46,2.46,0,0,0-.17.68C28.71,35.83,28.75,36,28.75,36Z"/><path class="cls-3" d="M28.47,35.31a5.89,5.89,0,0,0,.36-.86,6.9,6.9,0,0,0,.32-1.69,4.59,4.59,0,0,0-.09-.79,4.45,4.45,0,0,1,0,1.26,7.72,7.72,0,0,0-.38,1.15C28.56,34.88,28.47,35.31,28.47,35.31Z"/><path class="cls-3" d="M28.34,33.53A14.54,14.54,0,0,0,28,30.24a1.34,1.34,0,0,0,.07.27,1.09,1.09,0,0,1,0,.18l0,3.17a11.3,11.3,0,0,1-.1-1.93,2.67,2.67,0,0,1-.15.93,11.75,11.75,0,0,0,0-1.68,3,3,0,0,1-.07.84,6,6,0,0,0,0-1.12,7.79,7.79,0,0,0,0,1,2.31,2.31,0,0,1-.1-1.2.11.11,0,0,0,0-.08s-.06-.05-.09-.08-.14-.35-.27-.48a12.61,12.61,0,0,1,.15,2.45,1.31,1.31,0,0,0,.16.94,8.3,8.3,0,0,0,0-1.41,1.63,1.63,0,0,1,.08,1,5.16,5.16,0,0,0,.05.67.27.27,0,0,0,0,.12s0,.06.06.09a3.36,3.36,0,0,1,.32.51,4.7,4.7,0,0,0-.17-1,1.33,1.33,0,0,1,.14.48c0,.13,0,.37.12.46C28.4,34.46,28.34,33.64,28.34,33.53Z"/><path class="cls-3" d="M27.09,31.59a.82.82,0,0,1,.18.59,1.9,1.9,0,0,0,0,.63,2.21,2.21,0,0,1,0-.68,4.76,4.76,0,0,0-.14-.92c-.09-.52-.05-1.06-.18-1.56a1.54,1.54,0,0,1-.1-.51,2.89,2.89,0,0,0,0-.29,1.27,1.27,0,0,0,0-.34,9.63,9.63,0,0,1-.22-1.77,1.77,1.77,0,0,1-.05.79c-.07.33-.11.67-.15,1a3.84,3.84,0,0,0,.05,1.55l-.72.62a0,0,0,0,1,.07,0s0,0,0,.06a2.79,2.79,0,0,0,.52,1.1l-.25-1a4.59,4.59,0,0,0,.41.36,5.3,5.3,0,0,0,0-.69l.07.18a8.8,8.8,0,0,0,0-1.54c.26.62,0,1.37.24,2l0-.61a12.91,12.91,0,0,1,0,1.39,2.43,2.43,0,0,0,.08.47c0,.15.08.3.12.1A2.33,2.33,0,0,0,27.09,31.59Z"/><path class="cls-3" d="M24.85,27.71c0-.41-.05-.81,0-1.22,0-.69.14-1.38.09-2.07A3.88,3.88,0,0,1,25,25.74a10.29,10.29,0,0,0,.46,3,11.6,11.6,0,0,1-.12-2.7,4.28,4.28,0,0,0-.08.81,4.15,4.15,0,0,1,0-1.45,6.65,6.65,0,0,1-.1-1.47l.38,1.46,0-.61A6.82,6.82,0,0,1,26,27.61l.07-1a8,8,0,0,1,.18,1.55l.08,2a5.42,5.42,0,0,1-.21-1l0,.95a.76.76,0,0,1,0,.16.51.51,0,0,1-.34.26l0,.29c0-.84-.08-1.69-.11-2.53.12.29-.12.6-.16.91a3.63,3.63,0,0,0,0,.57c0,.13,0,.58-.22.52s-.21-.6-.23-.75A18.2,18.2,0,0,1,24.85,27.71Z"/><path class="cls-3" d="M21.65,21.27A3.74,3.74,0,0,1,21.74,20a9.26,9.26,0,0,1,.13,1.18c-.23-.78.25-1.59.25-2.41a7.52,7.52,0,0,1-.05,1.64c-.07,1.55.71,3.05.66,4.61a15.21,15.21,0,0,1-.35-4.46L23,22.73a1.54,1.54,0,0,1,0,1,6.92,6.92,0,0,1,.06-2.08c.32,1.62-.15,3.31.16,4.92a6.36,6.36,0,0,1-.34-2.45,17.35,17.35,0,0,0,0,2.28,12.18,12.18,0,0,1-.65-2.84,7.68,7.68,0,0,0,.43,2.68L22.26,25a1.15,1.15,0,0,1,0,.45,3.61,3.61,0,0,1-.45-1.9C21.76,22.82,21.7,22.05,21.65,21.27Z"/><path class="cls-3" d="M23.45,25.69l0-2.39.36,1.58-.21-2.26A4.89,4.89,0,0,1,24.07,25a1.36,1.36,0,0,1,.05-1.1,2.65,2.65,0,0,1,0,1.86l-.24-.58a5.35,5.35,0,0,1-.07,1.32c0,.22.07.85-.2.93A5.08,5.08,0,0,1,23.45,25.69Z"/><path class="cls-3" d="M24.7,26.5V24.92A1.92,1.92,0,0,1,25,23.76a.94.94,0,0,0-.45.76,5.51,5.51,0,0,1-.11.92c-.06.23-.18.43-.25.66-.2.72.25,1.48.2,2.24a16,16,0,0,1,.18-2.77c.09,1.39-.22,2.85.27,4.15a5.66,5.66,0,0,1,0-1.43C24.73,27.69,24.71,27.09,24.7,26.5Z"/><path class="cls-3" d="M20.29,19.68a5.72,5.72,0,0,1,0-.58l0-1.63c-.05.56-.12,1.12-.2,1.68-.16-.31.05-.69,0-1,0-.1-.07-.2-.09-.3a1.34,1.34,0,0,1,0-.4,5.66,5.66,0,0,1,.29-1.59,8.54,8.54,0,0,1,0,1.43,2.66,2.66,0,0,0,.16-1.6c.34.93,0,2,.23,3a5.43,5.43,0,0,1,.14-2.22,1.9,1.9,0,0,1,.22-.95,4.36,4.36,0,0,0,0,1.61c-.13-.61.25-1.21.31-1.83a1.66,1.66,0,0,1-.07.82c-.06.36,0,.73-.06,1.1s-.19.88-.25,1.33a8.24,8.24,0,0,0-.06,1.22,2.88,2.88,0,0,1-.12,1.21A3,3,0,0,1,20.29,19.68Z"/><path class="cls-3" d="M21,21.77a5.43,5.43,0,0,1,0-.57L21.31,18l.23,1.67a2,2,0,0,1,0,.42,2.09,2.09,0,0,1,0,.35c0,.11,0,.23,0,.35a13.79,13.79,0,0,0,.14,1.81,4.29,4.29,0,0,1-.39-1.8,3.86,3.86,0,0,0,0,2,4.94,4.94,0,0,1,.28,1.05,5.11,5.11,0,0,0-.34-.95A4.25,4.25,0,0,1,21,21.77Z"/><path class="cls-3" d="M19.3,19.55a2.24,2.24,0,0,0-.19-.46,2.18,2.18,0,0,0-.22-.31c-.52-.77-.39-1.81-.66-2.7l.23.46a5.36,5.36,0,0,1-.16-.89,6.6,6.6,0,0,1,.32,1,4.27,4.27,0,0,0-.06-1.13,1.79,1.79,0,0,1,0-1.23,10.53,10.53,0,0,1,.11,1.26,3.18,3.18,0,0,0,.07-1.59,1.27,1.27,0,0,1,.15.71c0,.17-.06.34-.08.51a3.53,3.53,0,0,0,0,.65q.07,1.28.21,2.55l-.37-1.26a2.3,2.3,0,0,0,.09.82,6.51,6.51,0,0,0,.31.72,4.67,4.67,0,0,1,.6,1.94C19.51,20.24,19.41,19.9,19.3,19.55Z"/><path class="cls-3" d="M19.33,20.71a2.5,2.5,0,0,1-.27-.93,2.11,2.11,0,0,0-.09-.56,1.53,1.53,0,0,0-.62-.64l.31,1.32a1.52,1.52,0,0,0-.35-.72c0,.72.51,1.32.74,2a2,2,0,0,0,.23.59,1.41,1.41,0,0,0,.54.43c.16.1.4.35.57.36C20.45,22,19.6,21.23,19.33,20.71Z"/><path class="cls-3" d="M19.48,17.4c0-.15,0-.31,0-.47a5.65,5.65,0,0,0,0-1.64,6.92,6.92,0,0,0,.15,4.58l.16-.05A6,6,0,0,1,19.48,17.4Z"/><path class="cls-3" d="M20.88,23.9a3.34,3.34,0,0,1-.49-.75,1.68,1.68,0,0,0,0,.5c-.12,0-.18-.16-.22-.28a1.15,1.15,0,0,0-.39-.51l-.05.31a1.28,1.28,0,0,1-.48-.5,3.9,3.9,0,0,1-.2-.47,4.41,4.41,0,0,0-.4-.78l.22.1a1,1,0,0,0-.19-.64,5.61,5.61,0,0,0,1,1.53.69.69,0,0,0,.19.19c.27.16.46.09.6.41l.22.42A2.38,2.38,0,0,0,20.88,23.9Z"/><path class="cls-3" d="M20.2,23.55l-.36-.28a3.69,3.69,0,0,1-1-1,1,1,0,0,0,.14.5,6,6,0,0,0,.67,1.12,3.08,3.08,0,0,0,.79.78c.1.07.21.12.3.19l.23.2c.3.3.6.6.91.89a4.38,4.38,0,0,0-.79-1.2C21.55,24.62,20.35,23.67,20.2,23.55Z"/><path class="cls-3" d="M20.24,12.52a.92.92,0,0,1,.33-.53,4.75,4.75,0,0,0-.21,1.56,3.65,3.65,0,0,1-.21,1,2.46,2.46,0,0,0,.3-1c0-.21,0-.42.07-.63.09-.43.29-.84.36-1.28a9.4,9.4,0,0,0-.16,2.05,4.09,4.09,0,0,1,0,.78,3.93,3.93,0,0,1-.19.58l-.38,1a2.37,2.37,0,0,1-.32.66,3.53,3.53,0,0,1,0-.92,10,10,0,0,1,.06-1.09A10.9,10.9,0,0,1,20.24,12.52Z"/><path class="cls-3" d="M22.35,27.16a2.37,2.37,0,0,0-.25-.29,2.09,2.09,0,0,0-.28-.17,3,3,0,0,1-.66-.51,2.62,2.62,0,0,0-.7-.63,2.1,2.1,0,0,0,.51,1,1.19,1.19,0,0,1,.37.53c0,.09,0,.18,0,.27a1.49,1.49,0,0,0,.76,1.07,3.66,3.66,0,0,1,1.07.83,4.36,4.36,0,0,1,.33.6,2.87,2.87,0,0,0,.94,1c-.44-.58-.61-1.34-1.1-1.88-.22-.25-.67-.57-.59-.95,0-.19.14-.22,0-.4S22.47,27.33,22.35,27.16Z"/><path class="cls-3" d="M20.84,25.45a1.24,1.24,0,0,1,.86.56c-.29-.32-.59-.63-.91-.92l-.2-.17c-.1-.07-.2-.11-.29-.17a1.58,1.58,0,0,1-.38-.35l-.57-.63a.66.66,0,0,0,.34.56,1.59,1.59,0,0,1,.51.45l-.49-.06a5.6,5.6,0,0,1,.69.6c.17.15.34.31.52.45s.41.43.57.44,0-.26-.1-.33A3.26,3.26,0,0,0,20.84,25.45Z"/><path class="cls-3" d="M24.66,31.3c-.62-.61-1.12-1.34-1.7-2a4,4,0,0,0-1-.88,24.74,24.74,0,0,0,1.58,1.94l.85.93.42.44c.07.08.32.43.42.42C25.45,32.16,24.75,31.39,24.66,31.3Z"/><path class="cls-3" d="M25,32.25a3.47,3.47,0,0,1-.45-.17,4.86,4.86,0,0,1-.59-.42,3,3,0,0,0-.75-.34c-.59-.22-1.19-.44-1.8-.62a3.18,3.18,0,0,1,.69.4,4,4,0,0,1,.3.28c.18.16.37.31.56.45a3.38,3.38,0,0,0,.7.43c.21.08.43.12.64.19a4.17,4.17,0,0,1,.58.24l.77.36c.13.06.49.26.4,0S25.33,32.36,25,32.25Z"/><path class="cls-3" d="M23.67,30.61l-.82-1a16.42,16.42,0,0,1-1.4-1.83,15.86,15.86,0,0,1-1.13-2.48.24.24,0,0,0-.1.24,1.12,1.12,0,0,0,.11.25c.33.61.36,1.39.87,1.86-.61-1-1.17-2.09-1.68-3.17a2.08,2.08,0,0,0-.47-.73A8.85,8.85,0,0,0,19.61,25l-1-1.43c-.06-.1-.2-.22-.29-.13a18.4,18.4,0,0,0,1,2.1,3.24,3.24,0,0,1-.69-1.12,6,6,0,0,0,.77,1.52,5.3,5.3,0,0,0,.58,1c.12.14.26.27.38.4a9.62,9.62,0,0,1,.73,1.07,13.51,13.51,0,0,0,2.36,2.54c.11.1.87.91,1,.77S23.77,30.73,23.67,30.61Z"/><path class="cls-3" d="M22.81,30.53l-1.14-1.26a9.76,9.76,0,0,1-.71-.88c-.13-.18-.23-.38-.37-.55a3.52,3.52,0,0,0-.36-.41l-.74-.77a17.36,17.36,0,0,0,.85,1.52A1.34,1.34,0,0,1,20,27.8l.89,1.09a5,5,0,0,0,.43.49c.16.15.34.28.49.43s.28.38.44.55a2,2,0,0,0,1,.62C23.16,30.81,22.93,30.66,22.81,30.53Z"/><path class="cls-3" d="M21.24,29.72c.05,0,0-.07,0-.11l-.7-.76a2.28,2.28,0,0,1,.63.57c.2.22.41.42.62.62l1.08,1c-.22-.22-.51-.3-.73-.52l-.45-.43C21.59,30,21.38,29.75,21.24,29.72Z"/><path class="cls-3" d="M24.85,32.91a1,1,0,0,0-.28-.14c-.11,0-.23-.06-.34-.09a2.55,2.55,0,0,1-.54-.22,9.26,9.26,0,0,1-1.83-1.22.75.75,0,0,0,.31.49,7.07,7.07,0,0,0,1.31.93.84.84,0,0,1,.32.27,4,4,0,0,0-1.25-.63,1.15,1.15,0,0,0,.42.19,5.22,5.22,0,0,1,1.28.81,1.29,1.29,0,0,0,.55.27,2.54,2.54,0,0,0,.39,0,1.7,1.7,0,0,1,.83.2c.12.06.49.33.38,0s-.47-.32-.66-.41S25.14,33.08,24.85,32.91Z"/><path class="cls-3" d="M26.65,34.39a2.43,2.43,0,0,0-.3-.34,1.68,1.68,0,0,0-.38-.12c-.23,0-.43-.16-.66-.21s-.48,0-.72-.06a2.83,2.83,0,0,1-1-.45,2.07,2.07,0,0,1,.51.59,2.94,2.94,0,0,1-.77-.58c.05.33.39.52.69.67a13.86,13.86,0,0,0,1.37.6,3.19,3.19,0,0,1,.72.29c.25.14.5.37.77.28C27.42,34.88,26.86,34.59,26.65,34.39Z"/><path class="cls-3" d="M26.88,34.91c0,.12.11.21-.28.25a1.36,1.36,0,0,1-.74-.24l-.7-.31c-.36-.15-.72-.33-1.07-.51a1.18,1.18,0,0,1-.58-.46s0,0,0,0a2.9,2.9,0,0,0-.5-.49c.28.1.55.27.82.38s.49.17.74.27c.45.2.89.46,1.35.65.16.07.33.12.49.18S26.82,34.75,26.88,34.91Z"/><path class="cls-3" d="M27.1,35.44a3.12,3.12,0,0,1-.78-.17,5.44,5.44,0,0,1-.72-.2,5.94,5.94,0,0,1-.67-.33l-.78-.43c-.16-.08-.31-.17-.46-.26a8.23,8.23,0,0,1-.75-.57l-.48-.39a1.15,1.15,0,0,1,.64.32,5.15,5.15,0,0,0,.74.47c.67.39,1.36.74,2.05,1.09a2.79,2.79,0,0,0,.6.24C26.63,35.25,27.1,35.23,27.1,35.44Z"/><path class="cls-3" d="M27.11,35.81c.06,0,.11.12.17.18a1.4,1.4,0,0,0,.46.16,1.64,1.64,0,0,1,.54.34,1.09,1.09,0,0,1,.43.57c-.36-.2-.71-.41-1.06-.62a7.83,7.83,0,0,1-1-.64C26.67,35.66,27,35.73,27.11,35.81Z"/></g><g id="Symbol_1-2" data-name="Symbol_1"><path class="cls-4" d="M30.94,37a6.44,6.44,0,0,0,0-2.8c.5,1.12-.23-1.25-.24-1.33a2.2,2.2,0,0,1,.34.64,2.77,2.77,0,0,0-.48-1.19c.05-.06.39.32.37.35s-.4-.75-.42-.74.43.16.42.25a10.39,10.39,0,0,1-.25-2.24s.19.87.19.84a5,5,0,0,1,.5-3,6.24,6.24,0,0,0,0,3.87c-.4-1.94.61-5.11,1.59-6.91,0,.42-.46,2.82-.53,3.32a16.14,16.14,0,0,0,1.39-3.52l0,.28c0-.47.43-3.18.47-3.59-.08.64.28,3.75.33,4.26.09-2.8.4-6.38,2.07-8.74a2.64,2.64,0,0,0,0,.93,6.63,6.63,0,0,1,1.07-3,18,18,0,0,0-.52,4.15,7,7,0,0,1,.77-2.2,4.29,4.29,0,0,0,0,.71c.06-.36,1.22-4.18,1.11-1.67a8.88,8.88,0,0,1,1.05-3.88c.09-.31.31-2.35.33-2.75A11.27,11.27,0,0,1,40.78,13a1.75,1.75,0,0,0,.19-.8,1.42,1.42,0,0,1,.09.48c0-.5.31-3,.29-3.64,0-.14.26,1.05.27,1-.22-1.27,0-3.84-.61-5.11.27,0,.7,1.28.68,1.45.14,0-.1-1-.15-1,.57.18,1.06,4.12,1,1.53-.58-2.36.07-5-1.43-6.9a9.48,9.48,0,0,1,1.68,2.37c.07,0-.42-1-.37-1a3.08,3.08,0,0,1,.67,1.52A2.15,2.15,0,0,0,43,2.16a5,5,0,0,1,.42,1.07c.08.52.06.18.15.08A12.67,12.67,0,0,1,44,6.16s0-.16.05-.52c.13-1.07.29,2.22.25,2.21.13-.22.1.27.18.36.34-.22.29-4.86.23-4.74a9.75,9.75,0,0,1,.45,1.61V4.52a10.85,10.85,0,0,1,.26,6.36c.08.06.47-1.11.43-1.05A10.23,10.23,0,0,1,45,14.35a7.79,7.79,0,0,0,.73-1.71,13.47,13.47,0,0,1-1,3c.33.06,1-2,1-2.31a11.68,11.68,0,0,1-1.51,4.3c.14.06.92-1.39,1-1.43,0,.22-.6,1.62-.68,1.87a13.84,13.84,0,0,0,1.6-3,8.31,8.31,0,0,1-.44,1.75l.25-.45s-.58,1.79-.63,2l.11-.18a18.9,18.9,0,0,1-1.65,3.7c0,.2.82-1.21.72-1.09a14.44,14.44,0,0,1-1.29,2.63s.06.07.18-.1a.76.76,0,0,1,.19-.21,7.17,7.17,0,0,1-1.14,1.74c.09.11.54-.54.49-.52.2.24-1.32,1.82-1.35,1.84l.18-.06c.1-.16-1.36,1.57-1.19,1.42A4,4,0,0,0,41.68,27s-.16.25-.23.33a4.68,4.68,0,0,0,.71-.62,10.89,10.89,0,0,1-1.34,1.84l.6-.54c0,.11-.88,1-.88,1.1l.36-.3a6.51,6.51,0,0,1-2.52,1.87c-.26.19.71-.15.71-.15a1.55,1.55,0,0,0-.37.24c-.07.23,1.12-.21,1.12-.3l-.25.31c.07-.1,1-.67,1.06-.76s-1,.78-.46.57l-1,.79.5-.31a10.05,10.05,0,0,1-2.75,1.78,18.22,18.22,0,0,0-3,1.27c-.85.59.08-.1.63.05a4.12,4.12,0,0,1,.71.23C34.25,34.09,31.26,36.08,30.94,37Z"/><path class="cls-5" d="M29.08,42.11l.52-.39c.58-3.45,2-6.38,4-9.89,4.45-7.2,10.7-14.5,9.86-22.93C44,16.76,38.3,24.38,34,30.66A41.09,41.09,0,0,0,29.08,42.11Z"/><path class="cls-3" d="M32,33s0-1-.08-1.72a3.53,3.53,0,0,1-.06-.89,4.18,4.18,0,0,1,0-1.39c.15-.75.68-2.87.68-2.87a12,12,0,0,0-.7,1.93,7.51,7.51,0,0,0-.33,2.11,12.6,12.6,0,0,0,.29,2.43A.78.78,0,0,1,32,33Z"/><path class="cls-3" d="M31.47,34.58s-.23-.93-.33-1.43a2.71,2.71,0,0,0-.39-1c-.15-.2.57.26.72.86s.33,1.22.33,1.22-.07,0-.25-.39a5.06,5.06,0,0,1-.22-.55,3.23,3.23,0,0,1,.24.92C31.53,34.37,31.47,34.58,31.47,34.58Z"/><path class="cls-3" d="M31.84,33.67a9.05,9.05,0,0,1-.48-1.16,9.34,9.34,0,0,1-.42-2.27,7,7,0,0,1,.11-1.08,6.11,6.11,0,0,0,0,1.7,9.21,9.21,0,0,1,.51,1.56C31.73,33.1,31.84,33.67,31.84,33.67Z"/><path class="cls-3" d="M32,31.27a19.32,19.32,0,0,1,.46-4.43,1.13,1.13,0,0,1-.09.35,2,2,0,0,0,0,.25l0,4.28a15.21,15.21,0,0,0,.12-2.61,3.77,3.77,0,0,0,.21,1.25,15.66,15.66,0,0,1,0-2.27,4.33,4.33,0,0,0,.11,1.14,6.83,6.83,0,0,1,0-1.5,11.21,11.21,0,0,1,0,1.3,2.93,2.93,0,0,0,.13-1.61s0-.09,0-.12a.38.38,0,0,1,.12-.1c.21-.14.18-.47.37-.65a16.65,16.65,0,0,0-.22,3.3,1.72,1.72,0,0,1-.21,1.27,12.05,12.05,0,0,1,0-1.9A2.16,2.16,0,0,0,33,30.51a5.45,5.45,0,0,1-.06.9.58.58,0,0,1,0,.18.44.44,0,0,1-.08.11,3.79,3.79,0,0,0-.43.69A6.19,6.19,0,0,1,32.65,31a1.68,1.68,0,0,0-.19.65c0,.17,0,.51-.17.62C31.94,32.53,32,31.42,32,31.27Z"/><path class="cls-3" d="M33.72,28.65a1,1,0,0,0-.25.8,3,3,0,0,1,0,.85,2.84,2.84,0,0,0,0-.92,6.54,6.54,0,0,1,.2-1.24c.12-.7.07-1.42.24-2.11a2,2,0,0,0,.13-.68c0-.13-.05-.26-.05-.4a1.82,1.82,0,0,1,.06-.46,12.69,12.69,0,0,0,.29-2.38,2.44,2.44,0,0,0,.07,1.07c.09.45.14.91.19,1.36a4.9,4.9,0,0,1-.06,2.09l1,.84a.05.05,0,0,0-.09,0,.19.19,0,0,0,0,.09,3.7,3.7,0,0,1-.7,1.47L35,27.64a3.57,3.57,0,0,1-.55.48,7.22,7.22,0,0,1,0-.93l-.1.25a12.17,12.17,0,0,1,0-2.09c-.36.85,0,1.86-.33,2.7L34,27.24A16.68,16.68,0,0,0,34,29.11a2.77,2.77,0,0,1-.11.64c0,.2-.1.4-.16.13A3,3,0,0,1,33.72,28.65Z"/><path class="cls-3" d="M36.73,23.42a15.17,15.17,0,0,0,.06-1.65c0-.93-.19-1.86-.12-2.79a5,5,0,0,0-.18,1.78,13.78,13.78,0,0,1-.62,4.08A15.37,15.37,0,0,0,36,21.19a6.59,6.59,0,0,1,.1,1.09,5.78,5.78,0,0,0,.06-2,10.29,10.29,0,0,0,.13-2l-.52,2,0-.82a9.14,9.14,0,0,0-.57,3.79l-.09-1.4A9.71,9.71,0,0,0,34.89,24l-.12,2.69a6.66,6.66,0,0,0,.28-1.31l.05,1.28a.78.78,0,0,0,0,.22c.06.18.27.27.46.34l-.05.4c.05-1.14.1-2.28.14-3.42-.15.39.16.81.22,1.23a6.61,6.61,0,0,1,0,.77c0,.18,0,.78.29.71s.27-.81.31-1C36.61,25.05,36.67,24.24,36.73,23.42Z"/><path class="cls-3" d="M41,14.73A4.36,4.36,0,0,0,40.92,13a14.27,14.27,0,0,0-.16,1.59c.31-1.05-.34-2.15-.35-3.25a10.25,10.25,0,0,0,.08,2.21c.09,2.1-1,4.13-.89,6.23a20.63,20.63,0,0,0,.46-6l-.79,2.89A2.14,2.14,0,0,0,39.21,18a9.07,9.07,0,0,0-.07-2.8c-.44,2.17.19,4.45-.22,6.64a8.52,8.52,0,0,0,.46-3.32,26.4,26.4,0,0,1,0,3.08,15.89,15.89,0,0,0,.88-3.83,10.19,10.19,0,0,1-.58,3.61l.52-1.57a1.59,1.59,0,0,0-.06.61,4.8,4.8,0,0,0,.61-2.57C40.9,16.82,41,15.78,41,14.73Z"/><path class="cls-3" d="M38.62,20.7l.05-3.23-.48,2.13.28-3.05a6.51,6.51,0,0,0-.68,3.15,1.82,1.82,0,0,0-.07-1.48,3.56,3.56,0,0,0,0,2.51L38,20a7.26,7.26,0,0,0,.1,1.79c0,.29-.09,1.14.27,1.25A6.53,6.53,0,0,0,38.62,20.7Z"/><path class="cls-3" d="M36.93,21.78c0-.71,0-1.41,0-2.12a2.48,2.48,0,0,0-.36-1.57,1.32,1.32,0,0,1,.61,1,8.56,8.56,0,0,0,.14,1.24c.09.3.25.58.34.88.28,1-.33,2-.27,3a22.24,22.24,0,0,0-.23-3.74c-.13,1.88.29,3.84-.37,5.61a7.83,7.83,0,0,0,.07-1.94C36.9,23.39,36.92,22.59,36.93,21.78Z"/><path class="cls-3" d="M42.88,12.58a6.78,6.78,0,0,0,0-.78l0-2.2c.06.76.15,1.52.26,2.27.23-.42-.06-.94,0-1.4,0-.14.09-.27.12-.41a1.63,1.63,0,0,0,0-.54A7,7,0,0,0,43,7.38,11.19,11.19,0,0,0,43,9.3a3.63,3.63,0,0,1-.22-2.16c-.45,1.27,0,2.7-.3,4a7.42,7.42,0,0,0-.19-3A2.65,2.65,0,0,0,42,6.88a5.52,5.52,0,0,1,0,2.18c.18-.83-.33-1.64-.42-2.48a2.3,2.3,0,0,0,.1,1.1c.09.49,0,1,.09,1.49s.25,1.19.34,1.8a11.19,11.19,0,0,1,.07,1.64,4.09,4.09,0,0,0,.16,1.64A4.06,4.06,0,0,0,42.88,12.58Z"/><path class="cls-3" d="M41.89,15.4a6.44,6.44,0,0,0,0-.76l-.35-4.35-.31,2.25a2.73,2.73,0,0,0,0,.57,3.75,3.75,0,0,0,.05.47c0,.16,0,.31,0,.47A16.49,16.49,0,0,1,41,16.49a5.58,5.58,0,0,0,.52-2.42,5.27,5.27,0,0,1-.05,2.76,6,6,0,0,0-.37,1.42A6.49,6.49,0,0,1,41.59,17,5.6,5.6,0,0,0,41.89,15.4Z"/><path class="cls-3" d="M44.21,12.42a2.89,2.89,0,0,1,.26-.63c.09-.15.2-.28.3-.42.71-1,.53-2.44.9-3.65l-.32.63a7.93,7.93,0,0,0,.22-1.2,8,8,0,0,0-.43,1.31A5.12,5.12,0,0,1,45.22,7a2.46,2.46,0,0,0,0-1.67A12.32,12.32,0,0,0,45.09,7,4.34,4.34,0,0,1,45,4.85a1.83,1.83,0,0,0-.2,1c0,.23.08.45.11.68a4.41,4.41,0,0,1,0,.89c-.07,1.14-.16,2.29-.28,3.43l.51-1.7A3,3,0,0,1,45,10.21a6.88,6.88,0,0,1-.41,1,6.51,6.51,0,0,0-.81,2.62C43.93,13.35,44.07,12.88,44.21,12.42Z"/><path class="cls-3" d="M44.18,14a3.47,3.47,0,0,0,.37-1.25,2.81,2.81,0,0,1,.11-.77,2,2,0,0,1,.84-.86l-.42,1.79a2,2,0,0,1,.48-1c0,1-.7,1.79-1,2.71a3.09,3.09,0,0,1-.31.8,2.09,2.09,0,0,1-.73.59c-.22.12-.54.46-.78.48C42.66,15.64,43.81,14.68,44.18,14Z"/><path class="cls-3" d="M44,9.51c0-.21,0-.42,0-.63a7.2,7.2,0,0,1,0-2.22,9.36,9.36,0,0,1-.21,6.18l-.22-.07C44.1,11.81,43.9,10.57,44,9.51Z"/><path class="cls-3" d="M42.08,18.27a4.17,4.17,0,0,0,.67-1,2.42,2.42,0,0,1,0,.66c.17,0,.25-.2.3-.36a1.53,1.53,0,0,1,.53-.7l.06.43a1.84,1.84,0,0,0,.65-.68,4.55,4.55,0,0,0,.27-.64,6.5,6.5,0,0,1,.54-1.05l-.3.14A1.42,1.42,0,0,1,45,14.2a7.53,7.53,0,0,1-1.35,2.07.89.89,0,0,1-.26.25c-.36.22-.62.13-.81.56-.09.19-.2.37-.29.56A2.5,2.5,0,0,1,42.08,18.27Z"/><path class="cls-3" d="M43,17.81l.49-.38a4.91,4.91,0,0,0,1.3-1.31,1.7,1.7,0,0,1-.19.68,8.85,8.85,0,0,1-.9,1.51,4.31,4.31,0,0,1-1.08,1.05c-.13.09-.27.16-.4.26a1.93,1.93,0,0,0-.3.27l-1.23,1.2a5.67,5.67,0,0,1,1.06-1.62C41.18,19.25,42.8,18,43,17.81Z"/><path class="cls-3" d="M43,2.92a1.23,1.23,0,0,0-.44-.72,6.54,6.54,0,0,1,.27,2.12,5.29,5.29,0,0,0,.29,1.31,3.12,3.12,0,0,1-.4-1.39,7.53,7.53,0,0,0-.1-.83c-.11-.6-.39-1.15-.49-1.74a12.2,12.2,0,0,1,.22,2.77,5.15,5.15,0,0,0,.07,1,5.61,5.61,0,0,0,.26.79l.51,1.34a2.93,2.93,0,0,0,.43.89,4.67,4.67,0,0,0,0-1.24c0-.49,0-1-.08-1.47A15.52,15.52,0,0,0,43,2.92Z"/><path class="cls-3" d="M40.11,22.68a1.8,1.8,0,0,1,.34-.39,2.35,2.35,0,0,1,.37-.24,3.73,3.73,0,0,0,.89-.69,3.74,3.74,0,0,1,.94-.84A2.9,2.9,0,0,1,42,21.84a1.78,1.78,0,0,0-.49.71,2.41,2.41,0,0,0,0,.38,2,2,0,0,1-1,1.43A5.27,5.27,0,0,0,39,25.48a6.35,6.35,0,0,0-.44.81,3.79,3.79,0,0,1-1.27,1.37c.6-.78.83-1.8,1.48-2.53.3-.33.92-.77.8-1.29,0-.24-.18-.29,0-.53S39.94,22.9,40.11,22.68Z"/><path class="cls-3" d="M42.14,20.37a1.68,1.68,0,0,0-1.16.75c.39-.42.8-.84,1.23-1.24a2,2,0,0,1,.27-.23c.13-.08.27-.14.4-.23a2.22,2.22,0,0,0,.5-.47l.77-.85a.91.91,0,0,1-.46.76,2.23,2.23,0,0,0-.69.6l.67-.07a7.1,7.1,0,0,0-.94.8c-.22.21-.46.42-.69.61s-.56.59-.77.6c-.37,0,0-.36.13-.45A3.79,3.79,0,0,1,42.14,20.37Z"/><path class="cls-3" d="M37,28.27c.83-.84,1.5-1.81,2.29-2.69a5.11,5.11,0,0,1,1.39-1.19A33.36,33.36,0,0,1,38.54,27c-.38.42-.76.84-1.15,1.25l-.56.6c-.1.1-.43.57-.56.57C35.92,29.42,36.87,28.39,37,28.27Z"/><path class="cls-3" d="M36.49,29.54a5,5,0,0,0,.61-.22,8.51,8.51,0,0,0,.8-.58,4.8,4.8,0,0,1,1-.46c.8-.29,1.61-.58,2.43-.82a4.29,4.29,0,0,0-.93.53l-.41.38a7.3,7.3,0,0,1-.75.6,4.07,4.07,0,0,1-1,.59c-.27.11-.57.16-.85.25a6,6,0,0,0-.79.33l-1,.48c-.17.08-.66.36-.53-.07S36.08,29.69,36.49,29.54Z"/><path class="cls-3" d="M38.33,27.33l1.1-1.3a21.28,21.28,0,0,0,1.88-2.48,21.49,21.49,0,0,0,1.54-3.34.3.3,0,0,1,.13.32,1.14,1.14,0,0,1-.15.34c-.44.82-.49,1.87-1.17,2.5a48.31,48.31,0,0,0,2.26-4.27,3.05,3.05,0,0,1,.63-1,10.92,10.92,0,0,1-.75,1.63l1.29-1.93c.09-.14.28-.29.4-.18a26.35,26.35,0,0,1-1.37,2.83,4.42,4.42,0,0,0,.94-1.5,8,8,0,0,1-1,2,7.81,7.81,0,0,1-.78,1.31c-.16.19-.35.36-.52.55a11.05,11.05,0,0,0-1,1.44,18.51,18.51,0,0,1-3.19,3.43c-.15.14-1.17,1.22-1.34,1S38.19,27.49,38.33,27.33Z"/><path class="cls-3" d="M39.48,27.22,41,25.52a11.18,11.18,0,0,0,1-1.19c.16-.24.3-.5.48-.74s.32-.37.49-.55l1-1a20.39,20.39,0,0,1-1.14,2,1.83,1.83,0,0,0,.49-.51L42.12,25a6.17,6.17,0,0,1-.59.66c-.21.2-.45.37-.65.59s-.38.5-.6.74a2.76,2.76,0,0,1-1.33.84C39,27.61,39.33,27.4,39.48,27.22Z"/><path class="cls-3" d="M41.6,26.14c-.07,0-.05-.11,0-.16l.94-1a3.1,3.1,0,0,0-.85.77c-.27.29-.55.56-.84.83l-1.45,1.38c.3-.29.69-.41,1-.71l.6-.57C41.12,26.53,41.42,26.17,41.6,26.14Z"/><path class="cls-3" d="M36.73,30.43a2.58,2.58,0,0,1,.37-.19,3.57,3.57,0,0,1,.47-.11,3.78,3.78,0,0,0,.72-.3,12.47,12.47,0,0,0,2.47-1.64,1,1,0,0,1-.42.66,11.36,11.36,0,0,1-1.75,1.25,1,1,0,0,0-.44.36,5.62,5.62,0,0,1,1.69-.86,1.5,1.5,0,0,1-.57.27A6.55,6.55,0,0,0,37.54,31a1.62,1.62,0,0,1-.74.37,3.15,3.15,0,0,1-.53,0,2.26,2.26,0,0,0-1.11.28c-.17.08-.66.44-.52,0s.64-.43.89-.56S36.34,30.66,36.73,30.43Z"/><path class="cls-3" d="M34.3,32.42a2.85,2.85,0,0,1,.41-.44,1.77,1.77,0,0,1,.52-.17c.3-.07.58-.22.88-.28s.66,0,1-.09a3.5,3.5,0,0,0,1.35-.61,2.68,2.68,0,0,0-.69.81,4.64,4.64,0,0,0,1-.78c-.08.44-.53.7-.94.9a17.63,17.63,0,0,1-1.84.8A4.66,4.66,0,0,0,35,33c-.33.2-.67.5-1,.38C33.26,33.09,34,32.7,34.3,32.42Z"/><path class="cls-3" d="M34,33.13c.07-.21.44-.29.62-.37l.66-.25c.62-.26,1.21-.6,1.82-.87.33-.15.67-.23,1-.36s.74-.39,1.11-.53a4.71,4.71,0,0,0-.67.67s0,0,0,0a1.59,1.59,0,0,1-.78.63c-.47.24-.95.48-1.45.69-.31.14-.63.27-.93.42a2,2,0,0,1-1,.33C33.85,33.42,34,33.29,34,33.13Z"/><path class="cls-3" d="M33.7,33.84a4.09,4.09,0,0,0,1.06-.22,8.05,8.05,0,0,0,1-.27,7.49,7.49,0,0,0,.9-.44l1.06-.58c.21-.12.42-.23.62-.36a12.25,12.25,0,0,0,1-.77l.65-.53a1.58,1.58,0,0,0-.86.44c-.32.23-.66.44-1,.64-.91.52-1.84,1-2.78,1.46a3.46,3.46,0,0,1-.8.33C34.33,33.59,33.69,33.56,33.7,33.84Z"/><path class="cls-3" d="M33.69,34.34c-.09.07-.15.17-.24.25a2,2,0,0,1-.61.21,2.18,2.18,0,0,0-.73.47,1.49,1.49,0,0,0-.59.77L33,35.19a10.39,10.39,0,0,0,1.39-.86C34.27,34.14,33.83,34.23,33.69,34.34Z"/></g><path id="Flying_Feather_IT" data-name="Flying Feather IT" d="M5.88,44.31c0,.11,0,.16-.12.16s-.13-.1-.16-.29A2,2,0,0,0,5.05,43a1.54,1.54,0,0,0-.85-.3c-.13,0-.43,0-.91,0L2,42.7V46a4.56,4.56,0,0,0,1.8-.19c.23-.13.37-.5.41-1.12,0-.17.06-.26.14-.26s.11.06.11.17a.91.91,0,0,1,0,.17c0,.53,0,1,0,1.46s0,1,0,1.36a.33.33,0,0,1,0,.14c0,.09,0,.13-.11.13a.09.09,0,0,1-.11-.06,3.23,3.23,0,0,1-.08-.53c-.06-.46-.18-.75-.36-.86a2.28,2.28,0,0,0-1.06-.17l-.74,0v1.16l0,2.23a.4.4,0,0,0,.27.42,2,2,0,0,0,.55,0c.12,0,.19,0,.19.09s-.08.09-.23.1H.22c-.15,0-.22,0-.22-.09s.13-.1.39-.12.42,0,.46-.11a1.07,1.07,0,0,0,.07-.53V43c0-.14-.05-.22-.12-.26a1.94,1.94,0,0,0-.59-.06c-.12,0-.18,0-.18-.13s.07-.12.2-.11H3.34a15.35,15.35,0,0,0,2.35-.09c0,.1,0,.38.07.85s.06.61.09.86A2.4,2.4,0,0,1,5.88,44.31Zm5.18,5c0,.42,0,.78,0,1.07h-.17l-.18,0h-.43l-.53,0-1.94,0H6.85c-.09,0-.14,0-.14-.08s.14-.08.44-.1c.08,0,.13,0,.15-.05a.55.55,0,0,0,0-.25V46c0-.43,0-.65-.1-.67a.44.44,0,0,0-.2,0h-.2q-.12,0-.12-.09c0-.06,0-.09.14-.08H8.69c.14,0,.21,0,.21.1s-.12.07-.37.08-.2,0-.22.08a2,2,0,0,0,0,.49v4.22h.66a3.09,3.09,0,0,0,1.53-.24,1.19,1.19,0,0,0,.32-.82c0-.18.06-.27.12-.27s.15.17.15.5Zm5.72-4.07s-.05.07-.15.08a1.06,1.06,0,0,0-.5.12,4.17,4.17,0,0,0-.51.89c-.24.48-.47.92-.7,1.32a1.62,1.62,0,0,0-.17.35,2,2,0,0,0,0,.42v1.41q0,.22.06.27a1.84,1.84,0,0,0,.47.06c.13,0,.2,0,.2.09s-.05.08-.16.08H13.18c-.1,0-.15,0-.15-.08s.11-.08.34-.1a.74.74,0,0,0,.38-.06.93.93,0,0,0,.06-.4V48.15l-.2-.4-.79-1.38-.27-.52-.24-.43a.91.91,0,0,0-.57-.12c-.1,0-.15,0-.15-.08s.05-.09.15-.09h2.18c.12,0,.17,0,.17.09s-.1.08-.3.08-.45.05-.45.15a15.31,15.31,0,0,0,1.2,2.22,21.89,21.89,0,0,0,1.16-2.26c0-.06-.06-.09-.19-.1h-.3c-.13,0-.19,0-.19-.09s.06-.09.19-.08h.72c.57,0,.85,0,.85.09Zm3,5s0,.07-.1.07H17.72c-.13,0-.19,0-.19-.07s.08-.09.25-.1.34,0,.36-.08a3.85,3.85,0,0,0,0-.48V45.91a2.9,2.9,0,0,0,0-.51s-.07-.08-.17-.09h-.34c-.07,0-.1,0-.1-.08s.05-.08.15-.08h1.87q.18,0,.18.09c0,.05-.13.07-.39.08-.1,0-.17,0-.19,0a.85.85,0,0,0,0,.32V50a.15.15,0,0,0,.09.15,1.76,1.76,0,0,0,.4.06c.1,0,.15,0,.15.08Zm6.06-5c0,.06-.09.09-.25.09h-.29c-.07,0-.11,0-.12,0a1.51,1.51,0,0,0,0,.3v4.18a3.24,3.24,0,0,1,0,.47s0,.07-.1.07-.35-.31-.8-.94L24,49.1l-.13-.17c-.38-.5-1.06-1.44-2.06-2.82v3.58c0,.28,0,.43.12.44a3.25,3.25,0,0,0,.44,0h.05c.09,0,.13,0,.13.08s-.08.08-.25.09l-.37,0-.31,0-.23,0-.46,0q-.18,0-.18-.09c0-.06.07-.09.21-.08h.25c.18,0,.28,0,.28-.1a1.83,1.83,0,0,0,0-.33V46.59a3.16,3.16,0,0,0-.1-1,.57.57,0,0,0-.54-.23c-.19,0-.28,0-.28-.1s.05-.08.15-.08h1.43l2.69,3.68V45.68a1.23,1.23,0,0,0,0-.33s-.07,0-.18,0h-.3c-.15,0-.22,0-.22-.09s0-.06.11-.07h1.49c.07,0,.11,0,.11.07ZM32,48.74s-.06.06-.2.07h-.36a.13.13,0,0,0-.09.1,1.88,1.88,0,0,0,0,.41v.46a2.67,2.67,0,0,1-1.73.61,2.75,2.75,0,0,1-2-.71,2.49,2.49,0,0,1-.74-1.89,2.8,2.8,0,0,1,.72-2,2.51,2.51,0,0,1,1.9-.75,2.77,2.77,0,0,1,1.32.38l.1,0c.06,0,.1,0,.13-.15s.09-.2.15-.2a.08.08,0,0,1,.1.07v0a1.44,1.44,0,0,0,0,.19c0,.22,0,.66,0,1.31,0,.18-.05.26-.14.26s-.1,0-.1-.13a1.81,1.81,0,0,0-.41-1.18,1.32,1.32,0,0,0-1-.44,1.35,1.35,0,0,0-1.19.68,3.49,3.49,0,0,0-.44,1.87,3.24,3.24,0,0,0,.44,1.8,1.35,1.35,0,0,0,1.19.66c.45,0,.73-.15.84-.43a1.58,1.58,0,0,0,.06-.48,1,1,0,0,0-.05-.46.91.91,0,0,0-.43,0H29.8c-.06,0-.09,0-.09-.08s.09-.1.27-.1h1.83c.13,0,.2,0,.2.09Zm6.59-4.43c0,.11,0,.16-.12.16s-.13-.1-.16-.29A2,2,0,0,0,37.76,43a1.53,1.53,0,0,0-.84-.3c-.14,0-.44,0-.91,0l-1.25,0V46a4.6,4.6,0,0,0,1.8-.19c.22-.13.36-.5.4-1.12,0-.17.06-.26.14-.26s.11.06.11.17a.91.91,0,0,1,0,.17c0,.53,0,1,0,1.46s0,1,0,1.36a.68.68,0,0,1,0,.14c0,.09,0,.14-.12.14a.11.11,0,0,1-.11-.07,3.23,3.23,0,0,1-.08-.53c-.06-.46-.18-.75-.36-.86a2.28,2.28,0,0,0-1.06-.17l-.74,0v1.16l0,2.23a.38.38,0,0,0,.26.42,2,2,0,0,0,.55,0c.12,0,.19,0,.19.09s-.08.09-.23.1H32.93c-.15,0-.22,0-.22-.09s.13-.1.39-.12.42,0,.46-.11a1,1,0,0,0,.07-.52V43c0-.14,0-.22-.12-.26a1.94,1.94,0,0,0-.59-.06c-.12,0-.18,0-.18-.13s.07-.12.2-.11h3.12a15.35,15.35,0,0,0,2.35-.09c0,.1,0,.38.07.85s.06.61.09.86a1.27,1.27,0,0,1,0,.28Zm5.14,4.78s0,0,0,.14,0,.16,0,.23v.65c0,.07,0,.16,0,.25l-1.88,0-2.16,0c-.16,0-.24,0-.24-.08s0-.09.13-.1a.9.9,0,0,0,.43,0S40,50,40,49.74V45.83c0-.31,0-.47-.08-.49a1.33,1.33,0,0,0-.4,0c-.09,0-.13,0-.13-.08s0-.08.14-.09H43l.49,0v.25c0,.11.05.45.1,1,0,0,0,.09,0,.14s0,.14-.08.14-.12-.07-.15-.22q-.16-.87-.6-1a5.86,5.86,0,0,0-1.18-.08H41v2.13h.27a2,2,0,0,0,.9-.12,1,1,0,0,0,.23-.65c0-.21.06-.32.13-.32s.11.07.12.23,0,.23,0,.42,0,.33,0,.43a8.53,8.53,0,0,0,0,1c0,.05,0,.1,0,.15s0,.18-.12.18-.12-.09-.13-.28c0-.41-.12-.66-.23-.74a1.85,1.85,0,0,0-.9-.11H41v2.45A13.05,13.05,0,0,0,43,50c.3-.08.48-.45.53-1.09,0-.12,0-.17.13-.17s.11.1.11.31Zm6.06,1.17s-.08.06-.23.06h-.08l-.7,0H47.33c-.14,0-.2,0-.2-.09s.13-.09.41-.1S48,50.1,48,50a1.87,1.87,0,0,0-.07-.22c0-.06-.1-.31-.26-.76l-.14-.39H45.93A8.06,8.06,0,0,0,45.47,50c0,.06,0,.1.13.11H46c.09,0,.14,0,.14.08s-.08.09-.24.09h-.4l-.65,0h-.35c-.12,0-.18,0-.18-.07s0-.07.14-.09l.28,0A.46.46,0,0,0,45,50a7.8,7.8,0,0,0,.55-1.3c.13-.34.26-.66.38-.95l.09-.24.09-.24c.13-.31.31-.78.55-1.41l.17-.48.08-.2c0-.11.09-.17.13-.17s.08.1.15.32q.34.82,1.76,4.39c.09.23.18.35.27.37a2.19,2.19,0,0,0,.36,0c.13,0,.2.05.2.11Zm-2.31-1.8-.74-2c-.18.46-.43,1.1-.75,2Zm7.22-1.9c0,.1-.05.16-.14.16s-.14-.08-.16-.22a1.78,1.78,0,0,0-.19-.76c-.14-.28-.47-.41-1-.41h-.35v4.57c0,.14.11.22.33.23s.33,0,.33.09-.07.08-.19.08H51.48c-.15,0-.23,0-.23-.08s.13-.09.38-.09a.57.57,0,0,0,.18,0,.12.12,0,0,0,.1-.11c0-.07,0-.26,0-.58V45.34a2.17,2.17,0,0,0-1.15.18,1.34,1.34,0,0,0-.36.91c0,.18-.07.26-.15.26s-.11-.08-.1-.26,0-.65.1-1.3l2.65,0,1.43,0a.86.86,0,0,0,.24,0v.24l0,.4,0,.48,0,.2a1.14,1.14,0,0,1,0,.15ZM61,50.23c0,.05-.11.08-.34.08H59c-.17,0-.25,0-.25-.08s.06-.07.19-.08.39,0,.4-.1a1.54,1.54,0,0,0,0-.37V47.6H57.23V50a.27.27,0,0,0,.1.16,1.75,1.75,0,0,0,.4,0c.08,0,.12,0,.12.08s-.07.08-.23.08H55.86c-.11,0-.17,0-.17-.08s.11-.08.33-.09.26,0,.27-.14V45.75a1.29,1.29,0,0,0,0-.34c0-.06-.07-.09-.2-.09s-.38,0-.38-.12,0-.06.16-.06h1.79c.13,0,.19,0,.19.09s-.1.09-.3.09a.43.43,0,0,0-.25,0s0,.1,0,.23v1.8h2.17V45.82a1.91,1.91,0,0,0,0-.41c0-.09-.09-.13-.23-.11l-.21,0q-.15,0-.15-.09t.24-.09h1.65c.18,0,.27,0,.27.08s-.05.08-.15.09h-.26c-.1,0-.16,0-.17.06a1.45,1.45,0,0,0,0,.36v3.94c0,.26,0,.4,0,.42a.91.91,0,0,0,.4,0c.1,0,.16,0,.16.09Zm5.4-1.15a1.13,1.13,0,0,1,0,.14,2.09,2.09,0,0,0,0,.24v.64a2.18,2.18,0,0,0,0,.25l-1.89,0H62.29c-.16,0-.24,0-.24-.08s.05-.08.14-.09a.91.91,0,0,0,.43,0s.06-.16.06-.37V45.83c0-.31,0-.48-.08-.5a1.79,1.79,0,0,0-.4,0c-.09,0-.14,0-.14-.08s0-.09.15-.1h.5l.13,0h.28l.57,0h1.92a2.68,2.68,0,0,0,.49,0v.25c0,.12,0,.46.09,1a.57.57,0,0,1,0,.13c0,.1,0,.15-.08.15s-.11-.08-.15-.23c-.1-.57-.3-.91-.6-1a5.17,5.17,0,0,0-1.18-.08h-.58v2.13h.28a2,2,0,0,0,.9-.12c.11-.08.18-.3.22-.66s.07-.31.14-.31.1.07.11.22,0,.23,0,.42a4,4,0,0,0,0,.44,8.58,8.58,0,0,0,0,1,.76.76,0,0,1,0,.15c0,.12,0,.18-.11.18s-.12-.1-.14-.29a1.19,1.19,0,0,0-.22-.73,2,2,0,0,0-.9-.12h-.29v2.46a12.94,12.94,0,0,0,2-.09c.3-.09.48-.45.53-1.1,0-.11,0-.17.13-.17s.11.11.12.32Zm5.77,1c0,.24-.22.36-.64.36a1.22,1.22,0,0,1-1-.47,1.13,1.13,0,0,1-.23-.4,8.06,8.06,0,0,1-.13-1,.93.93,0,0,0-.32-.68,1.58,1.58,0,0,0-.88-.22V50c0,.11.17.16.58.16.09,0,.13,0,.13.08s0,.08-.16.08H67.65c-.21,0-.32,0-.32-.08s0-.08.12-.09h.15c.26,0,.39,0,.39-.16V45.51a.17.17,0,0,0-.06-.16.75.75,0,0,0-.33,0q-.27,0-.27-.09c0-.06,0-.09.16-.08h.08c.12,0,.48,0,1.08,0h1a2.18,2.18,0,0,1,1.22.31,1,1,0,0,1,.46.82,1,1,0,0,1-.49.9,2.57,2.57,0,0,1-1.37.4,2.11,2.11,0,0,1,1.31.5,2.62,2.62,0,0,1,.46,1.44c0,.46.19.7.42.7,0,0,.06,0,.06,0l0-.07a.19.19,0,0,1,0-.1.2.2,0,0,1,.23-.22c.17,0,.25.1.25.26Zm-1.8-3.7a.91.91,0,0,0-.76-1,1,1,0,0,0-.25,0,.72.72,0,0,0-.33,0,.36.36,0,0,0-.06.25v1.86c.94,0,1.4-.37,1.4-1.12Zm8.26,3.87c0,.06,0,.09-.13.09h-.12c-.51,0-1,0-1.54,0l-.57,0h-.46c-.1,0-.14,0-.14-.1s.1-.1.3-.1.48,0,.53-.1a1.49,1.49,0,0,0,.08-.66v-6a1.62,1.62,0,0,0-.06-.62c0-.08-.25-.13-.62-.14-.15,0-.22,0-.22-.09s0-.1.14-.1l1.53,0H78.4c.12,0,.19,0,.19.1s-.17.1-.5.11-.31,0-.35.1a1,1,0,0,0-.06.48v6.07a1.82,1.82,0,0,0,0,.7,1.37,1.37,0,0,0,.74.15c.09,0,.13,0,.13.1ZM86,44.44a.13.13,0,0,1-.14.14c-.09,0-.15-.1-.19-.3l0-.41a1.93,1.93,0,0,0-.26-.69,1.14,1.14,0,0,0-.78-.48,2.2,2.2,0,0,0-.57-.05l-.65,0v6.86c0,.27.07.44.22.51a2.22,2.22,0,0,0,.63.07c.09,0,.14,0,.14.1s-.06.09-.18.1l-.16,0-1,0H81.46c-.17,0-.26,0-.26-.09s.16-.1.49-.11a.53.53,0,0,0,.45-.15,1.24,1.24,0,0,0,.06-.47V42.67a5.49,5.49,0,0,0-1.4.12c-.48.17-.76.64-.84,1.4,0,.22-.08.34-.16.34s-.13-.08-.14-.24,0-.17,0-.25l0-.26c0-.35,0-.81.1-1.38h.51l2.32,0c.27,0,.7,0,1.27,0l1.89,0q0,.63.15,1.89a.22.22,0,0,0,0,.08S86,44.41,86,44.44Z"/></g></g></svg>