<svg xmlns="http://www.w3.org/2000/svg" width="85.96" height="8.073" viewBox="0 0 85.96 8.073">
  <path id="Flying_Feather_IT" data-name="Flying Feather IT" d="M-296.082-54.182q0,.159-.114.159t-.159-.284a1.984,1.984,0,0,0-.557-1.194,1.488,1.488,0,0,0-.841-.3q-.2-.023-.91-.023-.523,0-1.251.034v3.32a4.615,4.615,0,0,0,1.8-.188q.341-.2.409-1.12.023-.262.136-.262t.114.171a1.066,1.066,0,0,1-.011.171q-.034.785-.034,1.455,0,.864.046,1.364a.607.607,0,0,1,.011.136q0,.136-.114.136a.105.105,0,0,1-.114-.068,4.967,4.967,0,0,1-.08-.523q-.091-.694-.358-.864a2.212,2.212,0,0,0-1.063-.171q-.421,0-.739.023l.011,1.16-.023,2.229a.4.4,0,0,0,.262.421,1.922,1.922,0,0,0,.557.034q.182,0,.182.091t-.227.1h-.114q-.159,0-.432-.011h-.352l-1.694.011q-.216,0-.216-.091t.392-.114q.392-.023.46-.108a1.137,1.137,0,0,0,.068-.529l-.011-6.527q-.011-.2-.119-.256a2,2,0,0,0-.586-.063q-.182,0-.182-.125t.2-.114h.182l1.1.011q1.12.011,1.836.011a16.856,16.856,0,0,0,2.354-.091q.011.148.068.853.034.478.091.853A1.972,1.972,0,0,1-296.082-54.182Zm5.185,4.98q0,.637-.023,1.069a1.065,1.065,0,0,1-.171.011l-.176-.017q-.165-.017-.426-.017l-.534-.011-1.944-.023-.932.011q-.148,0-.148-.08t.443-.1q.125-.011.154-.057a.628.628,0,0,0,.028-.25v-3.809q0-.637-.1-.671a.541.541,0,0,0-.2-.023,1.054,1.054,0,0,1-.2-.011q-.125,0-.125-.091t.148-.08l1.569.011q.125-.011.262-.011.216,0,.216.1,0,.068-.375.08-.182.011-.216.08a1.8,1.8,0,0,0-.034.489v4.218q.455.011.659.011a3,3,0,0,0,1.535-.239,1.183,1.183,0,0,0,.318-.819q.023-.273.125-.273Q-290.9-49.7-290.9-49.2Zm5.719-4.071q0,.068-.148.08a1.035,1.035,0,0,0-.506.125,4.632,4.632,0,0,0-.506.887q-.352.716-.7,1.319a1.5,1.5,0,0,0-.171.352,2.415,2.415,0,0,0-.023.421v1.41q0,.227.068.267a1.614,1.614,0,0,0,.466.063q.2.011.2.091t-.159.08h-.068l-.239-.011h-.3q-.091,0-.33-.011h-.33l-.176.011q-.188.011-.563.011h-.114q-.148,0-.148-.08t.335-.1q.335-.011.387-.068a.83.83,0,0,0,.051-.4v-1.512q-.068-.136-.2-.4l-.785-1.387-.273-.512q-.1-.193-.239-.432-.1-.114-.569-.125-.148,0-.148-.08t.148-.091l.216.011q.227.011.478.011h.353l1.012-.011a.639.639,0,0,1,.125-.011q.171,0,.171.091t-.3.08q-.455,0-.455.148a15.038,15.038,0,0,0,1.205,2.229,24.583,24.583,0,0,0,1.16-2.263q0-.091-.193-.1l-.2-.011h-.1q-.193,0-.193-.091t.193-.08l.443.011.273-.011Q-285.177-53.4-285.177-53.272Zm2.956,5.026q0,.068-.1.068h-.114l-.239-.011h-.3a1.754,1.754,0,0,1-.193-.011h-.125q-.114,0-.426.011t-.472.011h-.046q-.193,0-.193-.068,0-.091.25-.1.341-.023.358-.08a3.4,3.4,0,0,0,.017-.489v-3.661a3.008,3.008,0,0,0-.023-.517q-.023-.074-.171-.085l-.227-.011h-.114q-.1,0-.1-.08t.148-.08h.068a1.961,1.961,0,0,0,.25.011h.819q.068,0,.2-.011h.534q.182,0,.182.091,0,.068-.387.08-.159,0-.193.051a.787.787,0,0,0-.034.313v4.287a.142.142,0,0,0,.085.148,1.755,1.755,0,0,0,.4.057Q-282.221-48.314-282.221-48.246Zm6.06-5.014q0,.091-.25.091-.034,0-.159-.011h-.125q-.1,0-.119.045a1.437,1.437,0,0,0-.017.307v4.173q0,.409-.011.478t-.1.068q-.125,0-.807-.944-.08-.125-.25-.341-.023-.034-.125-.171-.568-.75-2.058-2.82V-48.8q0,.421.119.443a2.765,2.765,0,0,0,.438.023h.046q.136,0,.136.08t-.25.091q-.045,0-.375-.023-.171-.011-.307-.011-.114,0-.227.011a4.466,4.466,0,0,1-.466.023q-.182,0-.182-.091t.216-.08h.1l.148-.011q.273-.023.284-.1a2.415,2.415,0,0,0,.011-.33v-3.127a2.812,2.812,0,0,0-.1-1.023.572.572,0,0,0-.534-.227q-.284,0-.284-.1,0-.08.148-.08h.045l.625.011h.148q.114-.011.2-.011h.421l2.683,3.684v-3.161a1.224,1.224,0,0,0-.023-.33q-.023-.045-.182-.045a2.005,2.005,0,0,0-.239.011h-.068q-.216,0-.216-.091,0-.057.108-.068t.768-.011q.625,0,.728.011T-276.161-53.261Zm6.208,3.513q0,.057-.2.068l-.364.011q-.057.011-.085.1a1.771,1.771,0,0,0-.028.409v.455a2.651,2.651,0,0,1-1.728.614,2.75,2.75,0,0,1-1.99-.711,2.5,2.5,0,0,1-.739-1.893,2.754,2.754,0,0,1,.722-1.984,2.512,2.512,0,0,1,1.9-.756,2.764,2.764,0,0,1,1.319.387.2.2,0,0,0,.1.034q.091,0,.125-.148.068-.2.159-.2a.08.08,0,0,1,.091.091q0-.023-.023.193-.034.33-.034,1.308,0,.262-.136.262-.1,0-.1-.136a1.784,1.784,0,0,0-.415-1.177,1.3,1.3,0,0,0-1.018-.438,1.345,1.345,0,0,0-1.194.682,3.464,3.464,0,0,0-.432,1.865,3.214,3.214,0,0,0,.438,1.8,1.358,1.358,0,0,0,1.188.659q.682,0,.841-.432a1.445,1.445,0,0,0,.057-.478,1.032,1.032,0,0,0-.051-.461.906.906,0,0,0-.426-.051h-.08a.527.527,0,0,1-.1.011q-.091,0-.091-.08,0-.1.273-.1h.546l.171.011q.8,0,.91-.011h.2Q-269.952-49.849-269.952-49.747Zm6.583-4.434q0,.159-.114.159t-.159-.284A1.985,1.985,0,0,0-264.2-55.5a1.487,1.487,0,0,0-.841-.3q-.2-.023-.91-.023-.523,0-1.251.034v3.32a4.615,4.615,0,0,0,1.8-.188q.341-.2.409-1.12.023-.262.136-.262t.114.171a1.066,1.066,0,0,1-.011.171q-.034.785-.034,1.455,0,.864.045,1.364a.6.6,0,0,1,.011.136q0,.136-.114.136a.105.105,0,0,1-.114-.068,4.962,4.962,0,0,1-.08-.523q-.091-.694-.358-.864a2.212,2.212,0,0,0-1.063-.171q-.421,0-.739.023l.011,1.16-.023,2.229a.4.4,0,0,0,.261.421,1.923,1.923,0,0,0,.557.034q.182,0,.182.091t-.227.1h-.114q-.159,0-.432-.011h-.352l-1.694.011q-.216,0-.216-.091t.392-.114q.392-.023.46-.108a1.137,1.137,0,0,0,.068-.529l-.011-6.527q-.011-.2-.119-.256a2,2,0,0,0-.586-.063q-.182,0-.182-.125t.2-.114h.182l1.1.011q1.12.011,1.836.011a16.856,16.856,0,0,0,2.354-.091q.011.148.068.853.034.478.091.853A1.977,1.977,0,0,1-263.369-54.182Zm5.139,4.776q0,.011-.011.142t-.011.233l-.011.648q0,.114.011.25l-1.887-.034-2.16.011q-.239,0-.239-.08t.136-.091a.953.953,0,0,0,.426-.051q.063-.051.063-.37v-3.911q0-.466-.08-.495a1.608,1.608,0,0,0-.4-.028q-.136,0-.136-.08t.148-.091h.5l.125.011h.284l.569-.011h1.922a4.317,4.317,0,0,0,.489-.023v.08l.011.171q.023.171.091,1.023a.707.707,0,0,1,.011.136q0,.148-.08.148-.1,0-.148-.227-.159-.864-.6-1.012a5.172,5.172,0,0,0-1.183-.08h-.58v2.126h.273a1.982,1.982,0,0,0,.9-.119q.171-.119.227-.654.034-.318.136-.318t.114.227q0,.136-.017.421t-.017.432a9.76,9.76,0,0,0,.034,1.012,1.246,1.246,0,0,1,.011.148q0,.182-.114.182t-.136-.284q-.068-.614-.227-.733a1.937,1.937,0,0,0-.9-.119h-.284v2.456A12.958,12.958,0,0,0-259-48.451q.455-.125.534-1.092.011-.171.125-.171T-258.23-49.406Zm6.06,1.171q0,.068-.227.068h-.08l-.7-.023h-.318q-.193,0-.534.011l-.341.011-.2.011h-.057q-.2,0-.2-.091t.409-.1q.489-.011.489-.114a1.57,1.57,0,0,0-.068-.216q-.023-.091-.262-.762l-.136-.387h-1.626a7.414,7.414,0,0,0-.466,1.353q0,.1.136.114l.148.011h.171l.1.011q.136,0,.136.08t-.239.091l-.4-.017q-.37-.017-.654-.017h-.1l-.1.011-.125.011h-.023q-.182,0-.182-.068t.148-.091q.2-.011.273-.023a.431.431,0,0,0,.25-.1,8.006,8.006,0,0,0,.557-1.3q.193-.512.375-.955a2.238,2.238,0,0,0,.091-.239,2.23,2.23,0,0,1,.091-.239q.193-.466.546-1.41l.171-.478.08-.2q.068-.171.136-.171.034,0,.148.318.341.83,1.762,4.389.136.352.262.375a3.435,3.435,0,0,0,.364.034Q-252.169-48.326-252.169-48.235Zm-2.308-1.8-.739-1.944q-.273.682-.75,1.944Zm7.22-1.9q0,.159-.136.159t-.159-.216a1.9,1.9,0,0,0-.193-.762q-.216-.409-.989-.409-.114,0-.352.011v4.571q0,.216.33.227t.33.091q0,.08-.193.08h-.08q-.1,0-.318-.011h-.569q-.239.011-.614.011h-.273q-.227,0-.227-.08t.375-.091a.473.473,0,0,0,.182-.023.127.127,0,0,0,.1-.119q.011-.1.011-.574v-4.082a2.186,2.186,0,0,0-1.154.182,1.33,1.33,0,0,0-.358.91q-.034.262-.148.262t-.1-.262q0-.33.1-1.3l2.649.023q.353,0,1.433-.023a.857.857,0,0,0,.239-.045l.011.239.034.409.034.478.023.2Q-247.257-51.964-247.257-51.93Zm6.265,3.673q0,.08-.341.08l-.114-.011h-1.035a1.657,1.657,0,0,0-.25.011l-.182.011q-.25.011-.25-.08,0-.068.193-.08.375-.011.4-.1a1.621,1.621,0,0,0,.023-.375v-2.081h-2.172v2.342a.2.2,0,0,0,.1.159,1.4,1.4,0,0,0,.392.045q.125,0,.125.08t-.227.08h-.182q-.159-.011-.466-.011l-1.114.011q-.171,0-.171-.08t.33-.091q.25-.011.273-.136v-4.253a2.232,2.232,0,0,0-.011-.341q-.011-.091-.2-.091-.387-.011-.387-.114,0-.068.159-.068h.091q.239,0,.46.011t.313.011q.125,0,.46-.011t.392-.011h.08q.193,0,.193.091t-.307.091a.467.467,0,0,0-.244.04q-.051.04-.051.233v1.8h2.172v-1.569a1.778,1.778,0,0,0-.023-.409q-.023-.136-.227-.114l-.216.023q-.148-.023-.148-.091,0-.091.239-.091h.671q.307.011.443.011.273,0,.375-.011h.159q.273,0,.273.08t-.154.091a2.384,2.384,0,0,0-.256.011q-.148,0-.171.057a1.54,1.54,0,0,0-.023.364v3.934q0,.387.057.426a1.046,1.046,0,0,0,.4.04Q-240.992-48.349-240.992-48.258Zm5.4-1.148q0,.011-.011.142t-.011.233l-.011.648q0,.114.011.25l-1.888-.034-2.16.011q-.239,0-.239-.08t.136-.091a.953.953,0,0,0,.426-.051q.063-.051.063-.37v-3.911q0-.466-.08-.495a1.607,1.607,0,0,0-.4-.028q-.136,0-.136-.08t.148-.091h.5l.125.011h.284l.569-.011h1.922a4.317,4.317,0,0,0,.489-.023v.08l.011.171q.023.171.091,1.023a.707.707,0,0,1,.011.136q0,.148-.08.148-.1,0-.148-.227-.159-.864-.6-1.012a5.172,5.172,0,0,0-1.182-.08h-.58v2.126h.273a1.982,1.982,0,0,0,.9-.119q.171-.119.227-.654.034-.318.136-.318t.114.227q0,.136-.017.421t-.017.432a9.751,9.751,0,0,0,.034,1.012,1.246,1.246,0,0,1,.011.148q0,.182-.114.182t-.136-.284q-.068-.614-.227-.733a1.937,1.937,0,0,0-.9-.119h-.284v2.456a12.958,12.958,0,0,0,1.967-.091q.455-.125.534-1.092.011-.171.125-.171T-235.591-49.406Zm5.765.955q0,.364-.637.364a1.24,1.24,0,0,1-1-.466,1.112,1.112,0,0,1-.227-.409,7.918,7.918,0,0,1-.136-.966.951.951,0,0,0-.313-.682,1.607,1.607,0,0,0-.881-.216v2.342q-.034.159.58.159.125,0,.125.08t-.159.08q-.125,0-.239-.011h-.4q-.25,0-.6.011h-.591q-.318,0-.318-.08t.114-.091a.923.923,0,0,1,.114.011h.045q.387,0,.387-.159v-4.491a.182.182,0,0,0-.063-.165.794.794,0,0,0-.33-.04q-.267,0-.267-.091t.159-.08h.08q.182.023,1.08.023.375,0,.614-.011t.375-.011a2.14,2.14,0,0,1,1.222.313.955.955,0,0,1,.46.824,1.062,1.062,0,0,1-.489.9,2.655,2.655,0,0,1-1.376.4,2.032,2.032,0,0,1,1.313.5,2.561,2.561,0,0,1,.461,1.433q.068.7.421.7.057,0,.057-.034a.333.333,0,0,0-.028-.074.258.258,0,0,1-.028-.1q0-.216.227-.216Q-229.826-48.69-229.826-48.451Zm-1.8-3.7a.9.9,0,0,0-1.012-1.023.617.617,0,0,0-.324.051q-.063.051-.063.244v1.865Q-231.623-51.009-231.623-52.146Zm8.266,3.877q0,.091-.136.091h-.114a14.555,14.555,0,0,0-1.546-.034q-.284,0-.569.023-.148.011-.455.011-.148,0-.148-.1t.3-.1q.455-.011.534-.108a1.446,1.446,0,0,0,.08-.654v-5.981a1.684,1.684,0,0,0-.057-.625q-.068-.114-.625-.136-.216-.011-.216-.091,0-.1.136-.1l1.535.023q.171,0,.659-.011l.432-.011q.182,0,.182.1t-.5.114q-.284.011-.347.1a1.069,1.069,0,0,0-.063.478v6.072a2.009,2.009,0,0,0,.057.7,1.343,1.343,0,0,0,.739.148Q-223.357-48.36-223.357-48.269ZM-216-54.056q0,.148-.136.148t-.193-.3l-.045-.409a1.975,1.975,0,0,0-.262-.694,1.119,1.119,0,0,0-.785-.478,2.457,2.457,0,0,0-.569-.057q-.534.023-.648.034v6.856q0,.409.216.512a2.094,2.094,0,0,0,.637.068q.136.011.136.1t-.182.1a.979.979,0,0,1-.159-.011q-.682-.023-.966-.023-.375,0-.7.011t-.841.011q-.262,0-.262-.091t.489-.114q.352,0,.455-.148a1.122,1.122,0,0,0,.057-.466v-6.811a5.631,5.631,0,0,0-1.4.114q-.716.262-.841,1.4-.034.341-.159.341t-.136-.239q0-.125.011-.25l.023-.262q.034-.523.1-1.376h.512l2.32.034q.409.011,1.273-.011l1.887-.034q.023.637.148,1.887a.408.408,0,0,0,.011.085A.443.443,0,0,1-216-54.056Z" transform="translate(301.96 56.16)"/>
</svg>
