<svg xmlns="http://www.w3.org/2000/svg" xmlns:xlink="http://www.w3.org/1999/xlink" width="205.298" height="86.627" viewBox="0 0 205.298 86.627">
  <defs>
    <linearGradient id="linear-gradient" x1="0.5" x2="0.5" y2="1" gradientUnits="objectBoundingBox">
      <stop offset="0" stop-color="#fff"/>
      <stop offset="1" stop-color="#003383" stop-opacity="0.373"/>
    </linearGradient>
    <linearGradient id="linear-gradient-2" x1="0.5" x2="0.5" y2="1" gradientUnits="objectBoundingBox">
      <stop offset="0" stop-color="#fff"/>
      <stop offset="1" stop-color="#dd1a1e"/>
    </linearGradient>
  </defs>
  <g id="Group_16" data-name="Group 16" transform="translate(306.353 1554.207)">
    <g id="Group_14" data-name="Group 14">
      <path id="Path_147" data-name="Path 147" d="M13.575-13.2q0,.35-.25.35t-.35-.625A4.363,4.363,0,0,0,11.75-16.1a3.27,3.27,0,0,0-1.85-.65q-.45-.05-2-.05-1.15,0-2.75.075v7.3A10.147,10.147,0,0,0,9.1-9.837q.75-.438.9-2.463.05-.575.3-.575t.25.375a2.341,2.341,0,0,1-.025.375q-.075,1.725-.075,3.2,0,1.9.1,3a1.333,1.333,0,0,1,.025.3q0,.3-.25.3a.231.231,0,0,1-.25-.15A10.913,10.913,0,0,1,9.9-6.625q-.2-1.525-.788-1.9A4.864,4.864,0,0,0,6.775-8.9q-.925,0-1.625.05L5.175-6.3l-.05,4.9A.868.868,0,0,0,5.7-.475,4.226,4.226,0,0,0,6.925-.4q.4,0,.4.2,0,.225-.5.225h-.25q-.35,0-.95-.025H4.85L1.125.025Q.65.025.65-.175t.863-.25q.863-.05,1.013-.237a2.5,2.5,0,0,0,.15-1.162L2.65-16.175q-.025-.45-.262-.562A4.4,4.4,0,0,0,1.1-16.875q-.4,0-.4-.275,0-.25.45-.25h.4l2.413.025Q6.425-17.35,8-17.35a37.062,37.062,0,0,0,5.175-.2q.025.325.15,1.875.075,1.05.2,1.875A4.338,4.338,0,0,1,13.575-13.2Zm11.4,10.95q0,1.4-.05,2.35a2.341,2.341,0,0,1-.375.025q-.025,0-.388-.037T23.225.05L22.05.025l-4.275-.05L15.725,0Q15.4,0,15.4-.175q0-.15.975-.225.275-.025.337-.125a1.38,1.38,0,0,0,.063-.55V-9.45q0-1.4-.225-1.475a1.189,1.189,0,0,0-.437-.05A2.319,2.319,0,0,1,15.675-11q-.275,0-.275-.2,0-.175.325-.175l3.45.025q.275-.025.575-.025.475,0,.475.225,0,.15-.825.175-.4.025-.475.175a3.958,3.958,0,0,0-.075,1.075V-.45q1,.025,1.45.025,2.7,0,3.375-.525a2.6,2.6,0,0,0,.7-1.8q.05-.6.275-.6Q24.975-3.35,24.975-2.25ZM37.55-11.2q0,.15-.325.175a2.275,2.275,0,0,0-1.112.275A10.18,10.18,0,0,0,35-8.8q-.775,1.575-1.55,2.9a3.311,3.311,0,0,0-.375.775,5.32,5.32,0,0,0-.05.925v3.1q0,.5.15.588A3.549,3.549,0,0,0,34.2-.375q.45.025.45.2T34.3,0h-.15l-.525-.025h-.65q-.2,0-.725-.025h-.725q.025,0-.388.025T29.9,0h-.25q-.325,0-.325-.175,0-.2.738-.225t.85-.15a1.825,1.825,0,0,0,.113-.875V-4.75q-.15-.3-.45-.875L28.85-8.675q-.375-.7-.6-1.125t-.525-.95q-.225-.25-1.25-.275-.325,0-.325-.175,0-.2.325-.2l.475.025q.5.025,1.05.025h.775L31-11.375a1.4,1.4,0,0,1,.275-.025q.375,0,.375.2,0,.175-.65.175-1,0-1,.325a33.061,33.061,0,0,0,2.65,4.9,54.05,54.05,0,0,0,2.55-4.975q0-.2-.425-.225l-.45-.025H34.1q-.425,0-.425-.2,0-.175.425-.175l.975.025.6-.025Q37.55-11.475,37.55-11.2ZM44.05-.15q0,.15-.225.15h-.25L43.05-.025H42.4a3.857,3.857,0,0,1-.425-.025H41.7q-.25,0-.937.025T39.725,0h-.1Q39.2,0,39.2-.15q0-.2.55-.225.75-.05.787-.175a7.466,7.466,0,0,0,.038-1.075v-8.05a6.627,6.627,0,0,0-.05-1.137q-.05-.163-.375-.187l-.5-.025H39.4q-.225,0-.225-.175t.325-.175h.15a4.31,4.31,0,0,0,.55.025H42q.15,0,.45-.025h1.175q.4,0,.4.2,0,.15-.85.175-.35,0-.425.113a1.732,1.732,0,0,0-.075.688V-.775a.312.312,0,0,0,.188.325,3.858,3.858,0,0,0,.888.125Q44.05-.3,44.05-.15ZM57.375-11.175q0,.2-.55.2-.075,0-.35-.025H56.2q-.225,0-.263.1a3.156,3.156,0,0,0-.037.675V-1.05q0,.9-.025,1.05T55.65.15q-.275,0-1.775-2.075-.175-.275-.55-.75-.05-.075-.275-.375Q51.8-4.7,48.525-9.25v7.875q0,.925.262.975a6.08,6.08,0,0,0,.963.05h.1q.3,0,.3.175,0,.2-.55.2-.1,0-.825-.05Q48.4-.05,48.1-.05q-.25,0-.5.025a9.819,9.819,0,0,1-1.025.05q-.4,0-.4-.2,0-.175.475-.175h.225L47.2-.375q.6-.05.625-.225a5.319,5.319,0,0,0,.025-.725V-8.2a6.185,6.185,0,0,0-.225-2.25,1.258,1.258,0,0,0-1.175-.5q-.625,0-.625-.225,0-.175.325-.175h.1l1.375.025h.325q.25-.025.45-.025h.925l5.9,8.1V-10.2a2.691,2.691,0,0,0-.05-.725q-.05-.1-.4-.1A4.41,4.41,0,0,0,54.25-11H54.1q-.475,0-.475-.2,0-.125.237-.15t1.688-.025q1.375,0,1.6.025T57.375-11.175ZM71.025-3.45q0,.125-.45.15l-.8.025q-.125.025-.187.225a3.9,3.9,0,0,0-.062.9v1A5.829,5.829,0,0,1,65.725.2,6.047,6.047,0,0,1,61.35-1.362a5.507,5.507,0,0,1-1.625-4.163,6.055,6.055,0,0,1,1.588-4.362A5.523,5.523,0,0,1,65.5-11.55a6.078,6.078,0,0,1,2.9.85.448.448,0,0,0,.225.075q.2,0,.275-.325.15-.45.35-.45a.177.177,0,0,1,.2.2q0-.05-.05.425-.075.725-.075,2.875,0,.575-.3.575-.225,0-.225-.3a3.923,3.923,0,0,0-.913-2.587,2.865,2.865,0,0,0-2.237-.963,2.957,2.957,0,0,0-2.625,1.5,7.617,7.617,0,0,0-.95,4.1,7.066,7.066,0,0,0,.962,3.95A2.987,2.987,0,0,0,65.65-.175q1.5,0,1.85-.95a3.178,3.178,0,0,0,.125-1.05,2.27,2.27,0,0,0-.113-1.013,1.993,1.993,0,0,0-.937-.112H66.4a1.159,1.159,0,0,1-.225.025q-.2,0-.2-.175,0-.225.6-.225h1.2q.35.025.375.025,1.75,0,2-.025h.45Q71.025-3.675,71.025-3.45ZM13.575,13.8q0,.35-.25.35t-.35-.625A4.363,4.363,0,0,0,11.75,10.9a3.27,3.27,0,0,0-1.85-.65q-.45-.05-2-.05-1.15,0-2.75.075v7.3a10.147,10.147,0,0,0,3.95-.413q.75-.438.9-2.463.05-.575.3-.575t.25.375a2.341,2.341,0,0,1-.025.375q-.075,1.725-.075,3.2,0,1.9.1,3a1.333,1.333,0,0,1,.025.3q0,.3-.25.3a.231.231,0,0,1-.25-.15,10.913,10.913,0,0,1-.175-1.15q-.2-1.525-.788-1.9A4.864,4.864,0,0,0,6.775,18.1q-.925,0-1.625.05l.025,2.55-.05,4.9a.868.868,0,0,0,.575.925,4.226,4.226,0,0,0,1.225.075q.4,0,.4.2,0,.225-.5.225h-.25q-.35,0-.95-.025H4.85l-3.725.025q-.475,0-.475-.2t.863-.25q.863-.05,1.013-.238a2.5,2.5,0,0,0,.15-1.163L2.65,10.825q-.025-.45-.262-.562A4.4,4.4,0,0,0,1.1,10.125q-.4,0-.4-.275,0-.25.45-.25h.4l2.413.025Q6.425,9.65,8,9.65a37.061,37.061,0,0,0,5.175-.2q.025.325.15,1.875.075,1.05.2,1.875A4.338,4.338,0,0,1,13.575,13.8Zm11.3,10.5q0,.025-.025.313t-.025.513L24.8,26.55q0,.25.025.55l-4.15-.075-4.75.025q-.525,0-.525-.175,0-.2.3-.2a2.1,2.1,0,0,0,.938-.112q.137-.112.137-.812v-8.6q0-1.025-.175-1.088A3.535,3.535,0,0,0,15.725,16q-.3,0-.3-.175,0-.2.325-.2h1.1l.275.025h.625q.125,0,1.25-.025h4.225a9.493,9.493,0,0,0,1.075-.05v.175l.025.375q.05.375.2,2.25a1.553,1.553,0,0,1,.025.3q0,.325-.175.325-.225,0-.325-.5-.35-1.9-1.325-2.225a11.371,11.371,0,0,0-2.6-.175H18.85v4.675h.6a4.358,4.358,0,0,0,1.975-.262q.375-.263.5-1.437.075-.7.3-.7.25,0,.25.5,0,.3-.037.925t-.038.95a21.457,21.457,0,0,0,.075,2.225,2.734,2.734,0,0,1,.025.325q0,.4-.25.4-.225,0-.3-.625-.15-1.35-.5-1.613a4.259,4.259,0,0,0-1.975-.262H18.85v5.4a28.49,28.49,0,0,0,4.325-.2q1-.275,1.175-2.4.025-.375.275-.375T24.875,24.3ZM38.2,26.875q0,.15-.5.15h-.175l-1.55-.05h-.7q-.425,0-1.175.025l-.75.025-.45.025h-.125q-.45,0-.45-.2t.9-.225q1.075-.025,1.075-.25a3.452,3.452,0,0,0-.15-.475q-.05-.2-.575-1.675l-.3-.85H29.7a16.3,16.3,0,0,0-1.025,2.975q0,.225.3.25l.325.025h.375l.225.025q.3,0,.3.175,0,.2-.525.2-.075,0-.887-.038T27.35,26.95h-.225l-.225.025L26.625,27h-.05q-.4,0-.4-.15,0-.175.325-.2.45-.025.6-.05a.947.947,0,0,0,.55-.225,17.6,17.6,0,0,0,1.225-2.85q.425-1.125.825-2.1a4.911,4.911,0,0,0,.2-.525,4.912,4.912,0,0,1,.2-.525q.425-1.025,1.2-3.1l.375-1.05.175-.45q.15-.375.3-.375.075,0,.325.7.75,1.825,3.875,9.65.3.775.575.825a7.555,7.555,0,0,0,.8.075Q38.2,26.675,38.2,26.875Zm-5.075-3.95L31.5,18.65q-.6,1.5-1.65,4.275ZM49,18.75q0,.35-.3.35-.325,0-.35-.475a4.177,4.177,0,0,0-.425-1.675q-.475-.9-2.175-.9-.25,0-.775.025v10.05q0,.475.725.5t.725.2Q46.425,27,46,27h-.175q-.225,0-.7-.025h-1.25Q43.35,27,42.525,27h-.6q-.5,0-.5-.175t.825-.2a1.04,1.04,0,0,0,.4-.05.28.28,0,0,0,.225-.263q.025-.212.025-1.263V16.075a4.807,4.807,0,0,0-2.538.4,2.924,2.924,0,0,0-.787,2q-.075.575-.325.575-.225,0-.225-.575,0-.725.225-2.85l5.825.05q.775,0,3.15-.05a1.884,1.884,0,0,0,.525-.1l.025.525.075.9L48.925,18l.05.45Q49,18.675,49,18.75Zm13.775,8.075q0,.175-.75.175-.025,0-.25-.025H59.5a3.644,3.644,0,0,0-.55.025l-.4.025Q58,27.05,58,26.85q0-.15.425-.175.825-.025.875-.225a3.565,3.565,0,0,0,.05-.825V21.05H54.575V26.2a.437.437,0,0,0,.212.35,3.083,3.083,0,0,0,.862.1q.275,0,.275.175t-.5.175h-.4q-.35-.025-1.025-.025L51.55,27q-.375,0-.375-.175t.725-.2q.55-.025.6-.3v-9.35a4.917,4.917,0,0,0-.025-.75q-.025-.2-.45-.2-.85-.025-.85-.25,0-.15.35-.15h.2q.525,0,1.013.025t.688.025q.275,0,1.013-.025t.862-.025h.175q.425,0,.425.2,0,.225-.675.2a1.026,1.026,0,0,0-.537.087q-.113.088-.112.513v3.95H59.35v-3.45a3.91,3.91,0,0,0-.05-.9q-.05-.3-.5-.25l-.475.05q-.325-.05-.325-.2,0-.2.525-.2H60q.675.025.975.025.6,0,.825-.025h.35q.6,0,.6.175,0,.2-.338.2a5.241,5.241,0,0,0-.562.025q-.325,0-.375.125a3.386,3.386,0,0,0-.05.8V25.6q0,.85.125.938a2.3,2.3,0,0,0,.875.087Q62.775,26.625,62.775,26.825ZM74.65,24.3q0,.025-.025.313t-.025.513l-.025,1.425q0,.25.025.55l-4.15-.075-4.75.025q-.525,0-.525-.175,0-.2.3-.2a2.1,2.1,0,0,0,.938-.112q.138-.112.137-.812v-8.6q0-1.025-.175-1.088A3.535,3.535,0,0,0,65.5,16q-.3,0-.3-.175,0-.2.325-.2h1.1l.275.025h.625q.125,0,1.25-.025H73a9.493,9.493,0,0,0,1.075-.05v.175l.025.375q.05.375.2,2.25a1.553,1.553,0,0,1,.025.3q0,.325-.175.325-.225,0-.325-.5-.35-1.9-1.325-2.225a11.371,11.371,0,0,0-2.6-.175H68.625v4.675h.6a4.358,4.358,0,0,0,1.975-.262q.375-.263.5-1.437.075-.7.3-.7.25,0,.25.5,0,.3-.037.925t-.038.95a21.455,21.455,0,0,0,.075,2.225,2.734,2.734,0,0,1,.025.325q0,.4-.25.4-.225,0-.3-.625-.15-1.35-.5-1.613A4.259,4.259,0,0,0,69.25,21.2h-.625v5.4a28.49,28.49,0,0,0,4.325-.2q1-.275,1.175-2.4.025-.375.275-.375T74.65,24.3Zm12.675,2.1q0,.8-1.4.8a2.725,2.725,0,0,1-2.2-1.025,2.444,2.444,0,0,1-.5-.9,17.405,17.405,0,0,1-.3-2.125,2.091,2.091,0,0,0-.687-1.5,3.532,3.532,0,0,0-1.937-.475v5.15q-.075.35,1.275.35.275,0,.275.175t-.35.175q-.275,0-.525-.025H80.1q-.55,0-1.325.025h-1.3q-.7,0-.7-.175,0-.2.25-.2a2.03,2.03,0,0,1,.25.025h.1q.85,0,.85-.35V16.45a.4.4,0,0,0-.137-.363A1.746,1.746,0,0,0,77.363,16q-.588,0-.588-.2,0-.175.35-.175H77.3q.4.05,2.375.05.825,0,1.35-.025t.825-.025a4.706,4.706,0,0,1,2.688.688,2.1,2.1,0,0,1,1.013,1.813,2.335,2.335,0,0,1-1.075,1.987A5.837,5.837,0,0,1,81.45,21a4.468,4.468,0,0,1,2.887,1.1,5.632,5.632,0,0,1,1.012,3.15q.15,1.55.925,1.55.125,0,.125-.075a.734.734,0,0,0-.062-.163.567.567,0,0,1-.062-.212q0-.475.5-.475Q87.325,25.875,87.325,26.4Zm-3.95-8.125a1.978,1.978,0,0,0-2.225-2.25,1.357,1.357,0,0,0-.713.113q-.138.112-.137.537v4.1Q83.375,20.775,83.375,18.275Z" transform="translate(-238 -1516)"/>
      <path id="Path_148" data-name="Path 148" d="M13.536-.376q0,.376-.564.376H12.5A60.163,60.163,0,0,0,6.11-.141q-1.175,0-2.35.094Q3.149,0,1.88,0q-.611,0-.611-.423,0-.376,1.222-.423Q4.371-.893,4.7-1.293A5.977,5.977,0,0,0,5.029-4V-28.717A6.96,6.96,0,0,0,4.794-31.3q-.282-.47-2.585-.564-.893-.047-.893-.376,0-.423.564-.423l6.345.094q.705,0,2.726-.047l1.786-.047q.752,0,.752.423,0,.376-2.068.47-1.175.047-1.434.423a4.419,4.419,0,0,0-.259,1.974v25.1a8.3,8.3,0,0,0,.235,2.914q.517.517,3.055.611Q13.536-.752,13.536-.376ZM43.945-24.3q0,.611-.564.611t-.8-1.222L42.394-26.6a8.167,8.167,0,0,0-1.081-2.867,4.625,4.625,0,0,0-3.243-1.974,10.154,10.154,0,0,0-2.35-.235q-2.209.094-2.679.141V-3.2q0,1.692.893,2.115A8.657,8.657,0,0,0,36.566-.8q.564.047.564.423,0,.423-.752.423A4.049,4.049,0,0,1,35.72,0q-2.82-.094-4-.094-1.551,0-2.914.047T25.333,0q-1.081,0-1.081-.376,0-.423,2.021-.47,1.457,0,1.88-.611a4.643,4.643,0,0,0,.235-1.927V-31.537a23.273,23.273,0,0,0-5.781.47q-2.961,1.081-3.478,5.781-.141,1.41-.658,1.41-.564,0-.564-.987,0-.517.047-1.034l.094-1.081q.141-2.162.423-5.687h2.115l9.588.141q1.692.047,5.264-.047l7.8-.141q.094,2.632.611,7.8a1.682,1.682,0,0,0,.047.352A1.84,1.84,0,0,1,43.945-24.3Z" transform="translate(-145 -1494)"/>
    </g>
    <g id="Group_15" data-name="Group 15" transform="translate(-21.437 -17.792)">
      <g id="Symbol_blue" transform="matrix(0.926, -0.267, 0.254, 0.964, -284.554, -1511.13)">
        <path id="Path_54" data-name="Path 54" d="M13.7,55.479a9.853,9.853,0,0,1,.884-3.97c-1.061,1.421.73-1.688.77-1.795-.082-.028-.681.756-.681.792A4.178,4.178,0,0,1,15.74,48.98c-.046-.1-.64.324-.624.378-.079-.1.806-.93.831-.9-.076-.095-.649.073-.663.212a15.346,15.346,0,0,0,1.09-3.087c.032-.047-.549,1.175-.535,1.123a7.473,7.473,0,0,0,.3-4.324c.049,1.537-.276,4.259-1.338,5.464,1.206-2.609.887-7.417.146-10.274-.167.59-.317,4.124-.388,4.863a24.2,24.2,0,0,1-.718-5.421l-.121.388c.1-.676.475-4.629.567-5.224-.116.941-1.655,5.2-1.9,5.911.829-3.975,1.6-9.129.1-13.007a3.918,3.918,0,0,1-.287,1.314c.394-1.323-.176-3.233-.479-4.5.282.325-.479,5.373-.694,6.012a10.473,10.473,0,0,0-.312-3.353,5.822,5.822,0,0,1-.183,1.023c.031-.524-.272-6.292-.965-2.712.509-.714.219-5.595-.131-5.826-.021-.457.36-3.417.476-3.98a16.512,16.512,0,0,0-1.634,5.356,2.507,2.507,0,0,1,.009-1.187A1.99,1.99,0,0,0,8,17.865c.16-.7.566-4.271.837-5.226.06-.2-.72,1.392-.7,1.248.723-1.713,1.348-5.4,2.565-7.007-.38-.076-1.39,1.58-1.418,1.82-.194-.1.455-1.342.523-1.288-.845.062-2.856,5.466-1.85,1.851,1.6-3.151,1.579-7.069,4.293-9.283-.384-.036-2.942,2.458-3.113,2.8-.113.032.93-1.322.829-1.236-.32.014-1.449,1.651-1.435,1.925a3.347,3.347,0,0,1,.39-1.051A7.282,7.282,0,0,0,7.982,3.8c-.288.694-.142.228-.234.058a18.711,18.711,0,0,0-1.6,3.868s.015-.224.1-.741c.186-1.556-1.15,3.037-1.089,3.026-.11-.353-.235.35-.372.45C4.4,10.042,6.024,3.515,6.071,3.7A14.058,14.058,0,0,0,4.907,5.821l.183-.784a16.189,16.189,0,0,0-2.515,8.89,6.278,6.278,0,0,1-.232-1.619,15.07,15.07,0,0,0-.338,6.652,11.2,11.2,0,0,1-.43-2.651,19.96,19.96,0,0,0,.307,4.565c-.469-.022-.737-3.158-.656-3.6-.25,1.046.017,5.371.633,6.561-.211.039-.8-2.265-.842-2.34-.047.328.276,2.481.306,2.861C1.053,23.6.024,20.486.144,19.59A12.117,12.117,0,0,0,.151,22.2l-.186-.725c-.007,0,.195,2.72.2,3l-.094-.293a28.34,28.34,0,0,0,1.021,5.761,9.186,9.186,0,0,1-.615-1.769,21.241,21.241,0,0,0,.884,4.128s-.11.071-.217-.208a.938.938,0,0,0-.189-.348,10.241,10.241,0,0,0,.976,2.814c-.15.133-.554-.929-.5-.89-.344.281,1.211,3,1.247,3.035l-.231-.138c-.084-.26,1.34,2.655,1.157,2.38A5.877,5.877,0,0,1,2.312,37.9a4.554,4.554,0,0,0,.215.529,5.9,5.9,0,0,1-.77-1.1,14.955,14.955,0,0,0,1.22,3.022L2.327,39.4c-.054.162.866,1.718.846,1.851l-.392-.542A9.141,9.141,0,0,0,5.61,44.147c.3.361-.926-.44-.926-.44a2.447,2.447,0,0,1,.434.471c.014.337-1.47-.667-1.442-.8l.242.529c-.067-.162-1.11-1.26-1.2-1.415-.133-.038,1.072,1.415.444.946L4.28,44.884l-.583-.6c.331.929,2.072,2.41,3.17,3.4a24.607,24.607,0,0,1,3.722,2.764c.961,1.11-.077-.163-.9-.13a7.007,7.007,0,0,0-1.049.087C10.141,50.307,13.581,54.071,13.7,55.479Z" transform="translate(0)" fill="#003383"/>
        <path id="Path_55" data-name="Path 55" d="M9.885,51.528,9.313,50.8c.359-5.05-.592-9.653-2.192-15.255C3.421,23.943-2.711,11.615,1.3,0-2.07,10.917,3.2,23.519,6.944,33.755A60.32,60.32,0,0,1,9.885,51.528Z" transform="translate(4.645 11.769)" fill="url(#linear-gradient)"/>
        <path id="Path_56" data-name="Path 56" d="M-.016,9.89s.35-1.412.7-2.4a5.031,5.031,0,0,0,.373-1.247,6.116,6.116,0,0,0,.429-1.966C1.541,3.173,1.517,0,1.517,0a17.068,17.068,0,0,1,.315,2.951,10.833,10.833,0,0,1-.254,3.084A18.882,18.882,0,0,1,.359,9.381,1.155,1.155,0,0,0-.016,9.89Z" transform="translate(13.608 39.589)" fill="#fff" opacity="0.2"/>
        <path id="Path_57" data-name="Path 57" d="M.312,3.326s.632-1.238.931-1.9a4.061,4.061,0,0,1,.9-1.363c.264-.226-.87.18-1.283.988S0,2.652,0,2.652s.106,0,.473-.47a5.719,5.719,0,0,0,.487-.694,4.766,4.766,0,0,0-.638,1.22C.3,3.021.312,3.326.312,3.326Z" transform="translate(13.477 48.561)" fill="#fff" opacity="0.2"/>
        <path id="Path_58" data-name="Path 58" d="M-.01,6.094a11.622,11.622,0,0,0,1.055-1.47A14.14,14.14,0,0,0,2.393,1.547,9.774,9.774,0,0,0,2.6,0a8.941,8.941,0,0,1-.616,2.384A15.021,15.021,0,0,0,.76,4.419C.337,5.328-.01,6.094-.01,6.094Z" transform="translate(13.595 44.386)" fill="#fff" opacity="0.2"/>
        <path id="Path_59" data-name="Path 59" d="M1.607,7.152A28.575,28.575,0,0,0,2.462.743a1.837,1.837,0,0,0,0,.533,1.618,1.618,0,0,1-.055.348L.99,7.671a21.9,21.9,0,0,1,.7-3.712,5.582,5.582,0,0,1-.7,1.695A23.162,23.162,0,0,0,1.706,2.44a6.386,6.386,0,0,1-.525,1.573A10.951,10.951,0,0,0,1.613,1.87,16.078,16.078,0,0,0,1.1,3.686,4.367,4.367,0,0,1,1.47,1.373a.313.313,0,0,0,.024-.167c-.017-.074-.082-.122-.132-.178C1.126.76,1.27.3,1.079,0a24.974,24.974,0,0,1-.82,4.724A2.546,2.546,0,0,0,.123,6.575,17.988,17.988,0,0,0,.757,3.9,3.31,3.31,0,0,1,.482,5.756,8.877,8.877,0,0,0,.259,7.047a.818.818,0,0,0,0,.257A.875.875,0,0,0,.327,7.5,4.934,4.934,0,0,1,.683,8.608,8.8,8.8,0,0,0,.852,6.531a2.543,2.543,0,0,1,.04.977c-.021.246-.132.721.026.933C1.3,8.95,1.56,7.37,1.607,7.152Z" transform="translate(12.534 39.887)" fill="#fff" opacity="0.2"/>
        <path id="Path_60" data-name="Path 60" d="M1.983,9.407a1.6,1.6,0,0,1,.076,1.209A4.09,4.09,0,0,0,1.84,11.84a4.061,4.061,0,0,1,.3-1.308,9.762,9.762,0,0,0,.15-1.814c.07-1.025.389-2.03.375-3.055a3.323,3.323,0,0,1,.053-1c.055-.184.153-.354.208-.538A2.578,2.578,0,0,0,3,3.447,18.989,18.989,0,0,1,3.4-.006a3.606,3.606,0,0,1-.458,1.478c-.275.609-.5,1.24-.725,1.87A7.409,7.409,0,0,0,1.6,6.308l-1.612.866c.02-.046.092-.04.122,0a.229.229,0,0,1,.029.143A5.559,5.559,0,0,0,.608,9.625l0-2.042a6.059,6.059,0,0,0,.6.857A12.357,12.357,0,0,0,1.5,7.123l.052.379a18.542,18.542,0,0,0,.66-2.953c.211,1.3-.671,2.615-.458,3.917l.36-1.13a24.886,24.886,0,0,1-.7,2.623,5.178,5.178,0,0,0-.07.935c0,.294.006.6.184.245A4.638,4.638,0,0,0,1.983,9.407Z" transform="translate(10.717 33.386)" fill="#fff" opacity="0.2"/>
        <path id="Path_61" data-name="Path 61" d="M.548,7.031c.133-.788.265-1.577.469-2.35C1.363,3.375,1.911,2.12,2.132.788a7.681,7.681,0,0,1-.361,2.565,20.658,20.658,0,0,0-.518,5.961,23.106,23.106,0,0,1,1-5.211,9.594,9.594,0,0,0-.513,1.508,8.583,8.583,0,0,1,.579-2.773A14.737,14.737,0,0,1,2.806,0l.053,2.948.3-1.153a13.583,13.583,0,0,1-.5,5.528l.6-1.946A14.515,14.515,0,0,1,2.893,8.4l-.745,3.836A10.741,10.741,0,0,1,2.2,10.294l-.5,1.8a1.027,1.027,0,0,1-.113.289,1,1,0,0,1-.752.338L.766,13.3q.457-2.443.955-4.878c.081.609-.489,1.1-.71,1.673a7.785,7.785,0,0,0-.217,1.088c-.058.257-.282,1.1-.646.907-.307-.168-.1-1.235-.081-1.532C.153,9.376.351,8.2.548,7.031Z" transform="translate(9.774 27.408)" fill="#fff" opacity="0.2"/>
        <path id="Path_62" data-name="Path 62" d="M.972,4.512a7.045,7.045,0,0,1,.735-2.347,20.792,20.792,0,0,1-.308,2.3C1.33,2.88,2.592,1.545,2.974,0a15.241,15.241,0,0,1-.853,3.088c-.837,2.936-.074,6.131-.876,9.076a30.661,30.661,0,0,1,1.4-8.64l.1,4.336a3.081,3.081,0,0,1-.356,1.87A13.792,13.792,0,0,1,3.43,5.8C3.307,9.013,1.66,12.03,1.49,15.243a12.892,12.892,0,0,1,.484-4.828,38.063,38.063,0,0,0-1.08,4.342A23.876,23.876,0,0,1,.976,9.063a15.034,15.034,0,0,0-.415,5.284L.373,11.959a2.267,2.267,0,0,1-.116.879C-.3,11.735.134,10.186.28,9.017Q.562,6.756.972,4.512Z" transform="translate(6.348 16.268)" fill="#fff" opacity="0.2"/>
        <path id="Path_63" data-name="Path 63" d="M.479,5.8,1.5,1.228,1.438,4.389,2.077,0a9.528,9.528,0,0,1-.123,4.669,2.716,2.716,0,0,1,.6-2.065A5.279,5.279,0,0,1,1.725,6.14L1.549,4.934a10.953,10.953,0,0,1-.731,2.5c-.12.41-.26,1.645-.8,1.679A9.871,9.871,0,0,1,.479,5.8Z" transform="translate(8.163 24.186)" fill="#fff" opacity="0.2"/>
        <path id="Path_64" data-name="Path 64" d="M1.459,5.1c.229-1,.472-2,.716-3A3.75,3.75,0,0,1,3.2-.005,1.908,1.908,0,0,0,2.014,1.258a13.113,13.113,0,0,1-.616,1.7C1.177,3.361.856,3.7.635,4.1c-.714,1.3-.223,2.938-.649,4.357a32.78,32.78,0,0,1,1.582-5.2c-.454,2.7-1.7,5.334-1.382,8.039a11.171,11.171,0,0,1,.553-2.76Q1.069,6.807,1.459,5.1Z" transform="translate(9.142 26.967)" fill="#fff" opacity="0.2"/>
        <path id="Path_65" data-name="Path 65" d="M.23,8.045a10.866,10.866,0,0,1,.216-1.12l.71-3.1Q.629,5.394.019,6.938c-.166-.664.406-1.306.433-1.994.008-.2-.033-.406-.028-.61a2.764,2.764,0,0,1,.17-.772A11,11,0,0,1,1.845.67,17.467,17.467,0,0,1,1.2,3.385,5.414,5.414,0,0,0,2.221.4c.2,1.937-.876,3.811-.934,5.763-.1-1.455.79-2.775,1.272-4.157A3.932,3.932,0,0,1,3.413.286,8.54,8.54,0,0,0,2.62,3.352c.031-1.224,1.012-2.2,1.415-3.359a3.457,3.457,0,0,1-.5,1.525c-.286.66-.394,1.382-.623,2.064-.284.841-.75,1.608-1.074,2.434a17.981,17.981,0,0,0-.655,2.293A5.993,5.993,0,0,1,.4,10.568,5.821,5.821,0,0,1,.23,8.045Z" transform="translate(5.294 9.111)" fill="#fff" opacity="0.2"/>
        <path id="Path_66" data-name="Path 66" d="M.126,7.093a10.935,10.935,0,0,1,.3-1.07L2.373,0,2.043,3.28a4.837,4.837,0,0,1-.131.824c-.061.217-.152.424-.225.637s-.13.442-.182.666a26.854,26.854,0,0,0-.577,3.5,8.429,8.429,0,0,1,.1-3.586A7.739,7.739,0,0,0,.171,9.233,9,9,0,0,1,.2,11.363a9.949,9.949,0,0,0-.19-1.956A8.669,8.669,0,0,1,.126,7.093Z" transform="translate(5.801 14.36)" fill="#fff" opacity="0.2"/>
        <path id="Path_67" data-name="Path 67" d="M.655,10.93a4.5,4.5,0,0,0-.14-.962C.444,9.729.334,9.507.248,9.274c-.628-1.7.09-3.615,0-5.438l.224.985a11.305,11.305,0,0,1,.1-1.758,11.73,11.73,0,0,1,.152,1.99,8.125,8.125,0,0,0,.4-2.166A3.65,3.65,0,0,1,1.659.533a17.537,17.537,0,0,1-.375,2.447A6.363,6.363,0,0,0,2.153,0,2.642,2.642,0,0,1,2.1,1.412c-.1.316-.26.611-.376.922a6.983,6.983,0,0,0-.3,1.248Q.993,6.044.655,8.521L.533,5.957A4.553,4.553,0,0,0,.34,7.567a12.2,12.2,0,0,0,.241,1.5,9.455,9.455,0,0,1,.231,3.955C.729,12.334.705,11.627.655,10.93Z" transform="translate(3.087 5.56)" fill="#fff" opacity="0.2"/>
        <path id="Path_68" data-name="Path 68" d="M1.286,4.48A5,5,0,0,1,1.2,2.6a4.235,4.235,0,0,0,.1-1.116A2.882,2.882,0,0,0,.443,0L.417,2.655A3.047,3.047,0,0,0,.089,1.114C-.249,2.483.44,3.865.546,5.266A4.535,4.535,0,0,0,.7,6.5a3.019,3.019,0,0,0,.811,1.056c.25.246.588.825.9.933C2.81,7.326,1.556,5.6,1.286,4.48Z" transform="translate(1.977 14.222)" fill="#fff" opacity="0.2"/>
        <path id="Path_69" data-name="Path 69" d="M.963,4.033c.05-.306.086-.615.154-.918C1.354,2.062,1.99,1.069,1.9,0A13.929,13.929,0,0,0,.1,8.781a1.411,1.411,0,0,0,.318-.015C.022,7.227.713,5.548.963,4.033Z" transform="translate(4.082 8.438)" fill="#fff" opacity="0.2"/>
        <path id="Path_70" data-name="Path 70" d="M2.973,6.7a6.149,6.149,0,0,1-.581-1.629,3.853,3.853,0,0,0-.178.948c-.235-.056-.268-.374-.295-.619a2.145,2.145,0,0,0-.484-1.144L1.2,4.831A2.666,2.666,0,0,1,.54,3.669a7.711,7.711,0,0,1-.16-.99A9.383,9.383,0,0,0,0,1.016l.359.3A2.054,2.054,0,0,0,.293,0,11.135,11.135,0,0,0,1.449,3.357a1.526,1.526,0,0,0,.276.446c.427.426.814.381.93,1.043.053.3.145.59.2.89A4.426,4.426,0,0,0,2.973,6.7Z" transform="translate(1.722 18.74)" fill="#fff" opacity="0.2"/>
        <path id="Path_71" data-name="Path 71" d="M1.932,2.967l-.543-.7A7.093,7.093,0,0,1,.042,0,2.371,2.371,0,0,0,.076,1.018,12.341,12.341,0,0,0,.811,3.445a5.971,5.971,0,0,0,1.12,1.836c.155.163.325.312.468.487a4.218,4.218,0,0,1,.325.479L4.007,8.34A8.523,8.523,0,0,0,3.1,5.711C3.955,5.589,2.155,3.255,1.932,2.967Z" transform="translate(1.656 21.527)" fill="#fff" opacity="0.2"/>
        <path id="Path_72" data-name="Path 72" d="M2.731,1.484A1.757,1.757,0,0,1,3.57.612a9.644,9.644,0,0,0-1.088,2.9,7.673,7.673,0,0,1-.843,1.761A4.6,4.6,0,0,0,2.661,3.439c.133-.387.251-.78.418-1.153.357-.8.93-1.484,1.259-2.294A18.8,18.8,0,0,0,3.1,3.839a7.75,7.75,0,0,1-.449,1.446A7.608,7.608,0,0,1,2.042,6.31L.889,8.033a4.534,4.534,0,0,1-.9,1.115A7.193,7.193,0,0,1,.374,7.4q.253-1.042.6-2.057A22.513,22.513,0,0,1,2.731,1.484Z" transform="translate(5.959 2.015)" fill="#fff" opacity="0.2"/>
        <path id="Path_73" data-name="Path 73" d="M2.766,3.87A3.363,3.363,0,0,0,2.43,3.2,3.5,3.5,0,0,0,2,2.754,5.752,5.752,0,0,1,1,1.489,5.113,5.113,0,0,0,0,0,4.246,4.246,0,0,0,.5,2.089,2.318,2.318,0,0,1,.932,3.248a3.994,3.994,0,0,1-.105.53,2.886,2.886,0,0,0,.937,2.359A7.324,7.324,0,0,1,3.373,8.179,10.369,10.369,0,0,1,3.709,9.47a5.448,5.448,0,0,0,1.279,2.346C4.43,10.525,4.451,9.011,3.8,7.767c-.294-.564-1-1.386-.665-2.077.158-.33.355-.35.2-.745C3.191,4.575,2.925,4.24,2.766,3.87Z" transform="translate(3.159 28.435)" fill="#fff" opacity="0.2"/>
        <path id="Path_74" data-name="Path 74" d="M2.052,3.846A2.343,2.343,0,0,1,3.391,5.288Q2.8,4.189,2.123,3.139a3.149,3.149,0,0,0-.3-.419c-.144-.159-.316-.288-.463-.445a3.748,3.748,0,0,1-.539-.826L.043,0A1.323,1.323,0,0,0,.422,1.216a3.107,3.107,0,0,1,.749,1.077L.278,1.967A10.516,10.516,0,0,1,1.3,3.4q.359.556.748,1.09c.177.243.574,1,.859,1.085.5.142.064-.518-.033-.676A6.059,6.059,0,0,0,2.052,3.846Z" transform="translate(1.862 24.538)" fill="#fff" opacity="0.2"/>
        <path id="Path_75" data-name="Path 75" d="M3.748,6.659C2.887,5.213,2.293,3.616,1.514,2.122A7.429,7.429,0,0,0,0,0C.6,1.5,1.3,2.951,2.043,4.378c.375.72.762,1.434,1.156,2.144q.285.515.574,1.028c.1.171.395.941.58.979C4.833,8.626,3.871,6.865,3.748,6.659Z" transform="translate(4.58 34.537)" fill="#fff" opacity="0.2"/>
        <path id="Path_76" data-name="Path 76" d="M5.965,4.509A7.135,7.135,0,0,1,5.2,4a10.612,10.612,0,0,1-.9-1.073,6.231,6.231,0,0,0-1.222-.973C2.061,1.281,1.05.607,0,0A5.921,5.921,0,0,1,1.1,1.052c.159.214.288.449.433.674a11.745,11.745,0,0,0,.831,1.095A6.049,6.049,0,0,0,3.476,3.95c.341.243.729.411,1.086.629a9.153,9.153,0,0,1,.977.719L6.8,6.314c.217.176.8.718.762.081C7.52,5.7,6.473,4.854,5.965,4.509Z" transform="translate(2.628 38.647)" fill="#fff" opacity="0.2"/>
        <path id="Path_77" data-name="Path 77" d="M6.576,16.021,5.5,13.82A29.7,29.7,0,0,1,3.746,9.715a30.231,30.231,0,0,1-.982-5.208.448.448,0,0,0-.287.412,1.651,1.651,0,0,0,.086.525c.331,1.3.044,2.8.764,3.911Q2.335,6.023,1.661,2.6a4.124,4.124,0,0,0-.54-1.591A16.95,16.95,0,0,0,1.6,3.555L.483.4C.4.18.2-.093,0,.031A37.5,37.5,0,0,0,.921,4.467,6.278,6.278,0,0,1,.144,2.042,12.039,12.039,0,0,0,.877,5.263a11.923,11.923,0,0,0,.635,2.1c.158.326.36.626.529.946A16.437,16.437,0,0,1,2.9,10.652a26.28,26.28,0,0,0,3.223,5.866c.164.246,1.2,2.107,1.5,1.905C7.8,18.305,6.708,16.292,6.576,16.021Z" transform="translate(0.229 23.425)" fill="#fff" opacity="0.2"/>
        <path id="Path_78" data-name="Path 78" d="M4.39,8.807l-1.533-2.9a15.4,15.4,0,0,1-.931-1.982c-.144-.4-.255-.815-.422-1.206a9.047,9.047,0,0,0-.487-.935L0,0A30.088,30.088,0,0,0,.878,3.252a2.486,2.486,0,0,1-.508-.876L1.515,4.841A9.4,9.4,0,0,0,2.1,5.959c.225.351.5.671.7,1.036.222.4.359.838.574,1.239A3.894,3.894,0,0,0,4.919,9.847C4.9,9.5,4.549,9.108,4.39,8.807Z" transform="translate(0.861 30.107)" fill="#fff" opacity="0.2"/>
        <path id="Path_79" data-name="Path 79" d="M.881,1.964c.087.041.107-.127.061-.213L0,0A4.623,4.623,0,0,1,.909,1.361c.267.5.57.974.872,1.449L3.316,5.227c-.321-.517-.814-.8-1.125-1.321-.206-.341-.413-.68-.635-1.009C1.4,2.672,1.123,2.076.881,1.964Z" transform="translate(1.826 34.736)" fill="#fff" opacity="0.2"/>
        <path id="Path_80" data-name="Path 80" d="M4.8,4.465a3.263,3.263,0,0,0-.446-.384c-.189-.125-.4-.208-.6-.313a4.928,4.928,0,0,1-.9-.653A18.125,18.125,0,0,1,.015,0,1.468,1.468,0,0,0,.372,1.068,14.766,14.766,0,0,0,2.366,3.4a1.391,1.391,0,0,1,.472.659A7.776,7.776,0,0,0,.809,2.3a2.259,2.259,0,0,0,.7.553,9.512,9.512,0,0,1,2.007,2.1,2.358,2.358,0,0,0,.886.757,4.236,4.236,0,0,0,.738.165,3.183,3.183,0,0,1,1.439.745c.194.166.757.843.695.249-.048-.452-.734-.821-1.032-1.082Q5.505,5.145,4.8,4.465Z" transform="translate(3.15 39.864)" fill="#fff" opacity="0.2"/>
        <g id="Group_7" data-name="Group 7" transform="translate(3.431 43.631)">
          <path id="Path_81" data-name="Path 81" d="M5.643,3.662A4.041,4.041,0,0,0,5.224,2.9,2.293,2.293,0,0,0,4.573,2.5c-.388-.2-.721-.5-1.117-.689-.42-.2-.892-.257-1.32-.436A5.192,5.192,0,0,1,.489.078a3.9,3.9,0,0,1,.674,1.357A5.891,5.891,0,0,1,0,0C-.044.651.494,1.164.986,1.572A23.855,23.855,0,0,0,3.247,3.3a7.11,7.11,0,0,1,1.216.873c.382.381.754.922,1.29.868C6.842,4.933,5.931,4.148,5.643,3.662Z" transform="translate(1.552 0.641)" fill="#fff" opacity="0.2"/>
          <path id="Path_82" data-name="Path 82" d="M6.346,5.041c-.022-.322-.5-.555-.719-.73-.273-.183-.56-.358-.826-.556-.766-.571-1.464-1.246-2.218-1.826-.4-.309-.838-.539-1.241-.833C.884.762.469.312,0,0A6.185,6.185,0,0,1,.695,1.16C.646,1.2.63,1.2.683,1.146a2.307,2.307,0,0,0,.856,1.137c.576.5,1.157.989,1.761,1.446.386.292.778.58,1.15.891A2.676,2.676,0,0,0,5.714,5.4C6.458,5.488,6.271,5.254,6.346,5.041Z" transform="translate(1.02 0.359)" fill="#fff" opacity="0.2"/>
          <path id="Path_83" data-name="Path 83" d="M7.537,6.5a5.434,5.434,0,0,1-1.374-.657,10.056,10.056,0,0,1-1.24-.7,10.217,10.217,0,0,1-1.083-.91q-.631-.58-1.26-1.162c-.248-.228-.5-.457-.729-.7A15.226,15.226,0,0,1,.716.962L0,0A2.21,2.21,0,0,1,1.038.891,13.562,13.562,0,0,0,2.2,2.121c1.07,1.029,2.2,2,3.319,2.963a4.774,4.774,0,0,0,1,.719C6.758,5.943,7.642,6.106,7.537,6.5Z" fill="#fff" opacity="0.2"/>
        </g>
        <path id="Path_84" data-name="Path 84" d="M.909.328c.1.127.148.289.245.418a2.414,2.414,0,0,0,.772.5,3.128,3.128,0,0,1,.847.9,2.123,2.123,0,0,1,.54,1.277Q2.464,2.594,1.627,1.76A14.089,14.089,0,0,1,0,.095C.176-.149.755.129.909.328Z" transform="translate(9.908 50.512)" fill="#fff" opacity="0.2"/>
      </g>
      <g id="Symbol_1" transform="translate(-256.501 -1536.369) scale(0.988 1)">
        <path id="Path_116" data-name="Path 116" d="M.8,75.593c.412-.576.5-5.05.09-5.726,1.017,2.29-.459-2.548-.482-2.707a4.859,4.859,0,0,1,.7,1.305A5.743,5.743,0,0,0,.115,66.03c.1-.121.794.65.753.717.146-.106-.824-1.532-.867-1.506.139-.106.892.308.865.5a21.061,21.061,0,0,1-.5-4.582c-.029-.076.379,1.788.377,1.71a10.247,10.247,0,0,1,1.032-6.023c-.589,2.09-1.048,5.924.045,7.918C1,60.806,3.072,54.32,5.082,50.643c.037.862-.943,5.755-1.093,6.791a33.547,33.547,0,0,0,2.845-7.2l.039.57c.088-.958.892-6.5.964-7.34-.154,1.326.58,7.661.689,8.711.17-5.714.816-13.028,4.249-17.857a5.343,5.343,0,0,0-.037,1.894c-.111-1.941,1.339-4.374,2.192-6.01-.506.355-1.136,7.518-1.048,8.462-.228-.125,1.288-4.5,1.573-4.493a7.818,7.818,0,0,0-.088,1.461c.133-.729,2.508-8.536,2.278-3.408-.478-1.142,1.579-7.737,2.151-7.941.184-.621.644-4.8.671-5.608a22.53,22.53,0,0,1,.5,7.867,3.453,3.453,0,0,0,.388-1.63,2.73,2.73,0,0,1,.193.966c.01-1.011.642-6.035.582-7.432-.016-.292.545,2.141.564,1.937-.443-2.582-.082-7.835-1.257-10.429.564.018,1.429,2.613,1.388,2.95.308-.067-.189-1.986-.3-1.933,1.173.357,2.188,8.411,1.987,3.132-1.189-4.831.156-10.2-2.928-14.1.556.076,3.324,4.317,3.451,4.846.148.08-.867-2.11-.755-1.959.447.123,1.489,2.729,1.378,3.1a4.66,4.66,0,0,0-.2-1.565,10.122,10.122,0,0,1,.861,2.188c.172,1.046.123.358.312.155a25.534,25.534,0,0,1,.952,5.816s.053-.313.107-1.048c.263-2.192.6,4.533.517,4.5.275-.447.213.556.373.738.7-.447.6-9.916.472-9.673a19.216,19.216,0,0,1,.929,3.277l0-1.132a22.109,22.109,0,0,1,.552,12.993,8.706,8.706,0,0,0,.874-2.143c.115,2.619-.463,6.848-1.768,9.224a15.6,15.6,0,0,0,1.5-3.493,27.608,27.608,0,0,1-1.973,6.158c.668.12,2.106-4.09,2.139-4.721,0,1.516-1.836,7.357-3.107,8.789.285.121,1.887-2.85,1.979-2.936-.043.464-1.226,3.31-1.4,3.822.638-.958,3.14-4.889,3.273-6.155a16.569,16.569,0,0,1-.892,3.577l.508-.934c.01,0-1.194,3.665-1.29,4.051l.23-.372a39.3,39.3,0,0,1-3.386,7.567,12.839,12.839,0,0,0,1.464-2.227,29.59,29.59,0,0,1-2.639,5.373s.131.133.375-.214a1.377,1.377,0,0,1,.384-.417c.213.263-2.227,3.563-2.328,3.542.168.231,1.1-1.095,1-1.058.392.5-2.723,3.724-2.785,3.757l.373-.114c.205-.329-2.789,3.207-2.436,2.889a8.648,8.648,0,0,0,2.176-1.025,6.422,6.422,0,0,1-.482.658,8.523,8.523,0,0,0,1.458-1.256,21.2,21.2,0,0,1-2.742,3.747l1.239-1.105c.021.241-1.8,2.076-1.819,2.266l.736-.617c-1.249,1.833-3.175,2.731-5.156,3.806-.544.4,1.454-.3,1.454-.3a3.609,3.609,0,0,0-.771.507c-.133.458,2.3-.439,2.305-.629l-.519.646c.15-.2,1.991-1.369,2.178-1.551.2-.01-1.991,1.593-.945,1.154L17.68,64.108l1.025-.629c-.781,1.165-3.741,2.633-5.623,3.635-1.546.688-4.456,1.379-6.189,2.59s.164-.2,1.311.108a10.269,10.269,0,0,1,1.452.458C7.573,69.652,1.446,73.7.8,75.593Z" transform="translate(3.027 0)" fill="#dd1a1e"/>
        <path id="Path_117" data-name="Path 117" d="M0,68.835l1.066-.823c1.213-7.138,4.149-13.227,8.351-20.493C18.679,32.6,31.667,17.461,29.907,0c1.08,16.28-10.761,32.081-19.622,45.086A85.162,85.162,0,0,0,0,68.835Z" transform="translate(0 17.355)" fill="url(#linear-gradient-2)"/>
        <path id="Path_118" data-name="Path 118" d="M.973,14.255S.954,12.178.8,10.686A7.02,7.02,0,0,1,.691,8.831C.671,6.914.457,7.509.749,5.959S2.15,0,2.15,0A24.175,24.175,0,0,0,.706,4,15.317,15.317,0,0,0,.021,8.371c.127,1.322.238,4.566.592,5.055A1.631,1.631,0,0,1,.973,14.255Z" transform="translate(5.027 53.315)" fill="#fff" opacity="0.2"/>
        <path id="Path_119" data-name="Path 119" d="M1.523,5.234S1.048,3.306.851,2.28A5.7,5.7,0,0,0,.039.094c-.3-.4,1.171.533,1.482,1.793S2.2,4.4,2.2,4.4s-.15-.035-.51-.808a8.045,8.045,0,0,1-.454-1.125,6.668,6.668,0,0,1,.491,1.9C1.644,4.813,1.523,5.234,1.523,5.234Z" transform="translate(3.384 65.544)" fill="#fff" opacity="0.2"/>
        <path id="Path_120" data-name="Path 120" d="M1.864,9.331a16.209,16.209,0,0,1-.995-2.39A19.82,19.82,0,0,1,0,2.224,13.852,13.852,0,0,1,.236,0,12.514,12.514,0,0,0,.3,3.515,21.421,21.421,0,0,1,1.34,6.75C1.631,8.151,1.864,9.331,1.864,9.331Z" transform="translate(3.81 59.595)" fill="#fff" opacity="0.2"/>
        <path id="Path_121" data-name="Path 121" d="M.02,9.774A40.16,40.16,0,0,1,.979.582,2.642,2.642,0,0,1,.8,1.324a2.282,2.282,0,0,0-.041.5L.718,10.7A30.707,30.707,0,0,0,.979,5.306,7.862,7.862,0,0,0,1.4,7.892a32.657,32.657,0,0,1,.074-4.7,8.9,8.9,0,0,0,.212,2.359A15.235,15.235,0,0,1,1.8,2.427,22.7,22.7,0,0,1,1.91,5.121a6.15,6.15,0,0,0,.259-3.339.426.426,0,0,1,.023-.238c.047-.1.158-.143.247-.2.425-.3.376-.982.75-1.341a34.99,34.99,0,0,0-.44,6.835,3.578,3.578,0,0,1-.434,2.62A25.3,25.3,0,0,1,2.323,5.53,4.653,4.653,0,0,0,2.085,8.2a12.374,12.374,0,0,1-.121,1.867,1.123,1.123,0,0,1-.082.359,1.278,1.278,0,0,1-.164.242A6.994,6.994,0,0,0,.836,12.1,12.31,12.31,0,0,1,1.3,9.156,3.6,3.6,0,0,0,.912,10.5c-.053.35-.058,1.047-.351,1.289C-.147,12.375.014,10.091.02,9.774Z" transform="translate(6.016 54.235)" fill="#fff" opacity="0.2"/>
        <path id="Path_122" data-name="Path 122" d="M.621,13.55A2.259,2.259,0,0,0,.1,15.2,5.74,5.74,0,0,1,0,16.978a5.708,5.708,0,0,0,.019-1.917,13.791,13.791,0,0,1,.4-2.572c.249-1.447.136-2.949.5-4.369a4.618,4.618,0,0,0,.265-1.414c-.016-.273-.1-.541-.111-.817A3.629,3.629,0,0,1,1.2,4.93,26.523,26.523,0,0,0,1.8,0a5.1,5.1,0,0,0,.148,2.205c.185.937.29,1.886.395,2.837a10.374,10.374,0,0,1-.131,4.323L4.2,11.094c-.012-.068-.117-.083-.173-.039a.342.342,0,0,0-.088.191A7.937,7.937,0,0,1,2.492,14.3l.686-2.839a9,9,0,0,1-1.14.995,17.644,17.644,0,0,1,.043-1.923l-.2.51a25.941,25.941,0,0,1,.064-4.321c-.738,1.741.066,3.855-.676,5.6L1.14,10.628c-.22,1.277.181,2.582.1,3.876a7.417,7.417,0,0,1-.218,1.324c-.1.408-.212.835-.343.28A6.54,6.54,0,0,1,.621,13.55Z" transform="translate(8.885 45.114)" fill="#fff" opacity="0.2"/>
        <path id="Path_123" data-name="Path 123" d="M4.021,10.52c.08-1.138.158-2.28.132-3.42-.047-1.93-.4-3.853-.261-5.778a10.789,10.789,0,0,0-.357,3.685,28.976,28.976,0,0,1-1.282,8.456A32.486,32.486,0,0,0,2.6,5.892a13.481,13.481,0,0,1,.216,2.263C3.3,6.887,2.9,5.469,2.932,4.11c.031-1.376.516-2.752.273-4.11L2.133,4.083,2.1,2.381C.988,4.8.947,7.561.929,10.228l-.187-2.9a20.318,20.318,0,0,0-.5,4.323L0,17.231a15.14,15.14,0,0,0,.579-2.713l.1,2.665a1.43,1.43,0,0,0,.064.439,1.438,1.438,0,0,0,.949.715l-.1.829q.179-3.544.3-7.094c-.321.821.323,1.685.438,2.56a11.057,11.057,0,0,1-.06,1.583c-.006.375.025,1.627.606,1.471.491-.133.563-1.683.633-2.1C3.787,13.909,3.9,12.211,4.021,10.52Z" transform="translate(11.668 37.408)" fill="#fff" opacity="0.2"/>
        <path id="Path_124" data-name="Path 124" d="M4.362,6.935a9.865,9.865,0,0,0-.245-3.5,28.72,28.72,0,0,0-.345,3.3C4.409,4.547,3.074,2.28,3.057,0A21.48,21.48,0,0,0,3.22,4.572c.191,4.356-1.966,8.549-1.829,12.906A43.087,43.087,0,0,0,2.336,5.009l-1.613,6A4.346,4.346,0,0,0,.594,13.72a19.274,19.274,0,0,0-.144-5.8c-.912,4.51.4,9.241-.45,13.764a18.1,18.1,0,0,0,.949-6.87,53.479,53.479,0,0,1,.06,6.39,33.593,33.593,0,0,0,1.81-7.942,21.174,21.174,0,0,1-1.2,7.482l1.073-3.258a3.2,3.2,0,0,0-.131,1.26c1.157-1.353,1.07-3.648,1.259-5.322Q4.183,10.189,4.362,6.935Z" transform="translate(20.176 23.202)" fill="#fff" opacity="0.2"/>
        <path id="Path_125" data-name="Path 125" d="M2.334,8.591l.1-6.69L1.452,6.315,2.036,0C.859,1.915.729,4.28.631,6.531A3.8,3.8,0,0,0,.483,3.465a7.41,7.41,0,0,0-.027,5.19l.658-1.619a15.4,15.4,0,0,0,.189,3.71c.031.609-.187,2.371.561,2.595A13.891,13.891,0,0,0,2.334,8.591Z" transform="translate(17.23 33.799)" fill="#fff" opacity="0.2"/>
        <path id="Path_126" data-name="Path 126" d="M.738,7.664c.016-1.467.008-2.935,0-4.4A5.263,5.263,0,0,0,0,0,2.7,2.7,0,0,1,1.251,2.145a18.429,18.429,0,0,0,.294,2.57c.179.628.52,1.2.7,1.826.571,2.037-.678,4.158-.555,6.269a45.908,45.908,0,0,0-.479-7.749c-.269,3.9.6,7.971-.762,11.627.395-1.057.1-2.887.15-4.016Q.713,10.169.738,7.664Z" transform="translate(15.355 36.901)" fill="#fff" opacity="0.2"/>
        <path id="Path_127" data-name="Path 127" d="M2.748,12.437a15.384,15.384,0,0,0,.074-1.629l.043-4.547q.216,2.36.555,4.707c.46-.87-.134-1.948.062-2.914.058-.286.183-.553.244-.839a3.923,3.923,0,0,0,.023-1.13,15.408,15.408,0,0,0-.793-4.429,24.563,24.563,0,0,0-.006,3.983,7.593,7.593,0,0,1-.436-4.477c-.943,2.626-.049,5.583-.627,8.317.629-1.992-.179-4.116-.395-6.195A5.5,5.5,0,0,0,.868.609,11.955,11.955,0,0,1,.954,5.132C1.324,3.42.266,1.741.087,0a4.847,4.847,0,0,0,.2,2.284C.465,3.3.373,4.334.467,5.357c.117,1.262.516,2.479.7,3.735a25.408,25.408,0,0,1,.152,3.4,8.389,8.389,0,0,0,.331,3.393A8.216,8.216,0,0,0,2.748,12.437Z" transform="translate(25.549 13.432)" fill="#fff" opacity="0.2"/>
        <path id="Path_128" data-name="Path 128" d="M1.751,10.6a15.693,15.693,0,0,0-.07-1.586L.972,0,.327,4.674A6.972,6.972,0,0,0,.234,5.861c.014.323.072.64.1.96a9.846,9.846,0,0,1,.033.986A37.878,37.878,0,0,1,0,12.866,11.868,11.868,0,0,0,1.071,7.849a10.863,10.863,0,0,1-.109,5.712A12.689,12.689,0,0,0,.2,16.512a14.005,14.005,0,0,1,.931-2.659A12.2,12.2,0,0,0,1.751,10.6Z" transform="translate(24.527 20.99)" fill="#fff" opacity="0.2"/>
        <path id="Path_129" data-name="Path 129" d="M.94,15.689A6.357,6.357,0,0,1,1.462,14.4c.181-.309.413-.582.612-.877,1.465-2.16,1.1-5.055,1.845-7.558l-.649,1.3a16.049,16.049,0,0,0,.454-2.477A16.4,16.4,0,0,0,2.836,7.5,11.347,11.347,0,0,1,3,4.356c.224-1.157.61-2.425.035-3.449a24.374,24.374,0,0,0-.3,3.525A8.9,8.9,0,0,1,2.518,0a3.707,3.707,0,0,0-.407,1.983c.035.475.16.935.22,1.405a9.947,9.947,0,0,1,0,1.834q-.222,3.563-.581,7.117l1.04-3.525a6.414,6.414,0,0,1-.271,2.3,17.142,17.142,0,0,1-.851,2.015C.981,14.649-.1,16.854.007,18.553.358,17.618.631,16.642.94,15.689Z" transform="translate(30.093 10.046)" fill="#fff" opacity="0.2"/>
        <path id="Path_130" data-name="Path 130" d="M2.957,5.954a7.061,7.061,0,0,0,.76-2.591,5.992,5.992,0,0,1,.23-1.585A4.182,4.182,0,0,1,5.665,0L4.8,3.7a4.351,4.351,0,0,1,.986-2.035C5.8,3.681,4.363,5.376,3.738,7.289A6.447,6.447,0,0,1,3.1,8.957a4.39,4.39,0,0,1-1.5,1.2c-.436.259-1.11.955-1.584,1C-.162,9.413,2.2,7.418,2.957,5.954Z" transform="translate(28.004 22.68)" fill="#fff" opacity="0.2"/>
        <path id="Path_131" data-name="Path 131" d="M.83,5.917c.033-.441.088-.883.092-1.324C.943,3.051.38,1.461.869,0A19.549,19.549,0,0,1,.444,12.8,2.106,2.106,0,0,1,0,12.673C1.083,10.665.672,8.106.83,5.917Z" transform="translate(29.716 13.6)" fill="#fff" opacity="0.2"/>
        <path id="Path_132" data-name="Path 132" d="M0,8.443A8.856,8.856,0,0,0,1.373,6.369,5.418,5.418,0,0,1,1.3,7.745c.351,0,.507-.431.627-.765A3.1,3.1,0,0,1,3,5.548l.133.873a3.848,3.848,0,0,0,1.331-1.4A10.43,10.43,0,0,0,5.028,3.7a13.357,13.357,0,0,1,1.1-2.187l-.612.3A2.913,2.913,0,0,1,6.057,0a15.921,15.921,0,0,1-2.77,4.29,2.208,2.208,0,0,1-.542.531c-.748.452-1.28.263-1.669,1.146-.177.4-.4.773-.586,1.171A6.334,6.334,0,0,1,0,8.443Z" transform="translate(26.656 29.017)" fill="#fff" opacity="0.2"/>
        <path id="Path_133" data-name="Path 133" d="M4.753,3.509l1-.794A10.281,10.281,0,0,0,8.429,0a3.335,3.335,0,0,1-.39,1.4A17.756,17.756,0,0,1,6.177,4.539,8.646,8.646,0,0,1,3.97,6.725c-.273.176-.565.327-.826.524a6.142,6.142,0,0,0-.621.56Q1.26,9.056,0,10.3A12.167,12.167,0,0,1,2.176,6.943C1,6.491,4.34,3.834,4.753,3.509Z" transform="translate(23.79 32.93)" fill="#fff" opacity="0.2"/>
        <path id="Path_134" data-name="Path 134" d="M1.769,2.6a2.482,2.482,0,0,0-.89-1.486c.6,1.353.431,2.908.559,4.386a10.762,10.762,0,0,0,.6,2.723,6.468,6.468,0,0,1-.828-2.881c-.058-.582-.092-1.167-.2-1.741C.77,2.375.191,1.233,0,0A26.264,26.264,0,0,1,.45,5.751,10.656,10.656,0,0,0,.6,7.909a10.454,10.454,0,0,0,.518,1.625l1.048,2.773a6.4,6.4,0,0,0,.9,1.845,10.044,10.044,0,0,0,.043-2.56c0-1.02-.057-2.041-.158-3.057A31.544,31.544,0,0,0,1.769,2.6Z" transform="translate(26.664 3.457)" fill="#fff" opacity="0.2"/>
        <path id="Path_135" data-name="Path 135" d="M5.831,4.477a4.784,4.784,0,0,1,.7-.821,4.915,4.915,0,0,1,.76-.481A8.4,8.4,0,0,0,9.129,1.741,7.425,7.425,0,0,1,11.052,0,6.071,6.071,0,0,1,9.645,2.742,3.3,3.3,0,0,0,8.636,4.211a5.655,5.655,0,0,0-.031.771A4.145,4.145,0,0,1,6.483,7.956a10.631,10.631,0,0,0-2.967,2.313A14.425,14.425,0,0,0,2.6,11.954,7.849,7.849,0,0,1,0,14.8c1.225-1.612,1.71-3.724,3.047-5.243.606-.688,1.878-1.6,1.644-2.669-.111-.51-.384-.6-.031-1.1C4.993,5.318,5.48,4.939,5.831,4.477Z" transform="translate(16.781 41.89)" fill="#fff" opacity="0.2"/>
        <path id="Path_136" data-name="Path 136" d="M2.384,4.69A3.433,3.433,0,0,0,0,6.257Q1.211,4.923,2.521,3.685A4.52,4.52,0,0,1,3.092,3.2c.259-.174.547-.3.808-.468a5.462,5.462,0,0,0,1.042-.972L6.526,0a1.9,1.9,0,0,1-.947,1.567A4.489,4.489,0,0,0,4.155,2.819l1.373-.162A15.345,15.345,0,0,0,3.6,4.323q-.7.656-1.428,1.27C1.843,5.873,1.021,6.8.592,6.823c-.758.033.084-.742.275-.931A8.963,8.963,0,0,1,2.384,4.69Z" transform="translate(24.384 37.013)" fill="#fff" opacity="0.2"/>
        <path id="Path_137" data-name="Path 137" d="M1.643,8.033c1.708-1.726,3.088-3.753,4.7-5.577A10.866,10.866,0,0,1,9.2,0C7.84,1.886,6.361,3.679,4.828,5.42q-1.162,1.318-2.361,2.6-.576.622-1.159,1.241c-.193.207-.877,1.179-1.153,1.171C-.558,10.414,1.4,8.28,1.643,8.033Z" transform="translate(14.571 49.831)" fill="#fff" opacity="0.2"/>
        <path id="Path_138" data-name="Path 138" d="M2.94,4.321A10.628,10.628,0,0,0,4.2,3.865a15.249,15.249,0,0,0,1.642-1.2A9.161,9.161,0,0,1,7.9,1.716C9.556,1.109,11.215.5,12.906,0a8.686,8.686,0,0,0-1.917,1.1c-.3.247-.561.531-.84.8A16.981,16.981,0,0,1,8.6,3.148a8.937,8.937,0,0,1-1.95,1.208c-.565.226-1.169.334-1.749.518a13.639,13.639,0,0,0-1.625.682l-2.127,1C.785,6.732-.224,7.3.045,6.421.339,5.463,2.106,4.634,2.94,4.321Z" transform="translate(12.237 56.129)" fill="#fff" opacity="0.2"/>
        <path id="Path_139" data-name="Path 139" d="M2.312,20.167l2.264-2.709a42.481,42.481,0,0,0,3.871-5.134A42.939,42.939,0,0,0,11.6,5.4a.637.637,0,0,1,.267.667,2.29,2.29,0,0,1-.3.7c-.906,1.7-1.009,3.874-2.4,5.188Q11.693,7.654,13.8,3.112a5.883,5.883,0,0,1,1.3-2.035,23.966,23.966,0,0,1-1.543,3.384L16.212.445c.189-.284.567-.6.81-.361a53.2,53.2,0,0,1-2.8,5.867,8.952,8.952,0,0,0,1.919-3.117,17.114,17.114,0,0,1-2.125,4.238,17.23,17.23,0,0,1-1.607,2.707c-.335.4-.723.752-1.068,1.142A23.412,23.412,0,0,0,9.324,13.9a38,38,0,0,1-6.544,7.1c-.314.288-2.4,2.539-2.766,2.16C-.2,22.942,2.032,20.5,2.312,20.167Z" transform="translate(16.623 35.858)" fill="#fff" opacity="0.2"/>
        <path id="Path_140" data-name="Path 140" d="M1.1,10.808l3.15-3.529A22.387,22.387,0,0,0,6.238,4.827c.339-.512.637-1.051,1-1.54a12.853,12.853,0,0,1,1-1.142L10.29,0A43.272,43.272,0,0,1,7.948,4.234,3.6,3.6,0,0,0,8.963,3.181L6.509,6.234A13.733,13.733,0,0,1,5.309,7.6c-.438.415-.929.771-1.342,1.21-.448.479-.791,1.049-1.231,1.536A5.7,5.7,0,0,1,0,12.083C.142,11.61.775,11.175,1.1,10.808Z" transform="translate(20.212 44.944)" fill="#fff" opacity="0.2"/>
        <path id="Path_141" data-name="Path 141" d="M4.547,2.441c-.136.029-.107-.211-.014-.315L6.458,0A6.707,6.707,0,0,0,4.712,1.6c-.547.6-1.136,1.167-1.724,1.728L0,6.184c.629-.616,1.422-.854,2.038-1.469.407-.408.814-.81,1.241-1.2C3.569,3.256,4.167,2.518,4.547,2.441Z" transform="translate(21.129 51.03)" fill="#fff" opacity="0.2"/>
        <path id="Path_142" data-name="Path 142" d="M4.362,4.644a4.88,4.88,0,0,1,.76-.388c.31-.112.639-.157.955-.238A7.26,7.26,0,0,0,7.569,3.4,26.561,26.561,0,0,0,12.644,0a2.105,2.105,0,0,1-.867,1.37,21.617,21.617,0,0,1-3.61,2.589,2.027,2.027,0,0,0-.89.763,11.439,11.439,0,0,1,3.466-1.782,3.331,3.331,0,0,1-1.177.541A13.911,13.911,0,0,0,6.016,5.749a3.494,3.494,0,0,1-1.508.763,6.3,6.3,0,0,1-1.1-.013,4.715,4.715,0,0,0-2.287.566c-.331.168-1.358.926-1.068.12.22-.613,1.317-.9,1.827-1.169Q3.135,5.361,4.362,4.644Z" transform="translate(11.33 57.617)" fill="#fff" opacity="0.2"/>
        <g id="Group_11" data-name="Group 11" transform="translate(9.434 62.706)">
          <path id="Path_143" data-name="Path 143" d="M1.26,3.3a5.789,5.789,0,0,1,.851-.926,3.405,3.405,0,0,1,1.056-.336c.616-.153,1.19-.462,1.812-.593.662-.137,1.348-.066,2.016-.174A7.63,7.63,0,0,0,9.764,0,5.61,5.61,0,0,0,8.351,1.666,8.537,8.537,0,0,0,10.477.05c-.152.92-1.089,1.457-1.921,1.863A35.106,35.106,0,0,1,4.771,3.579a10.487,10.487,0,0,0-2.016.815C2.086,4.8,1.377,5.43.637,5.181-.867,4.674.689,3.88,1.26,3.3Z" transform="translate(0 0.334)" fill="#fff" opacity="0.2"/>
          <path id="Path_144" data-name="Path 144" d="M.026,4.935c.14-.439.9-.609,1.264-.781.448-.166.914-.315,1.358-.5C3.924,3.107,5.14,2.4,6.4,1.836c.674-.3,1.368-.477,2.038-.752C9.2.769,9.94.28,10.71,0A8.834,8.834,0,0,0,9.334,1.384c.058.066.078.073.023-.014a3.379,3.379,0,0,1-1.6,1.3c-.982.5-1.97,1-2.979,1.434-.645.278-1.3.551-1.927.862A3.952,3.952,0,0,1,.8,5.644C-.285,5.519.061,5.254.026,4.935Z" transform="translate(0.62 0.168)" fill="#fff" opacity="0.2"/>
          <path id="Path_145" data-name="Path 145" d="M0,6.572a8.073,8.073,0,0,0,2.166-.464,14.941,14.941,0,0,0,1.989-.564A15.093,15.093,0,0,0,6,4.632l2.176-1.2c.427-.236.857-.473,1.268-.738A22.451,22.451,0,0,0,11.523,1.1L12.861,0a3.259,3.259,0,0,0-1.769.9A20.116,20.116,0,0,1,9.033,2.232c-1.862,1.08-3.781,2.056-5.7,3.034a7.066,7.066,0,0,1-1.658.674C1.291,6.054-.016,5.994,0,6.572Z" transform="translate(0.033 0)" fill="#fff" opacity="0.2"/>
        </g>
        <path id="Path_146" data-name="Path 146" d="M4.446.254c-.183.145-.308.352-.487.5A3.561,3.561,0,0,1,2.7,1.195a4.6,4.6,0,0,0-1.5.968A3.046,3.046,0,0,0,0,3.763Q1.479,2.9,2.946,2.009A20.514,20.514,0,0,0,5.811.227C5.644-.169,4.732.028,4.446.254Z" transform="translate(5.02 69.831)" fill="#fff" opacity="0.2"/>
      </g>
    </g>
  </g>
</svg>
